<svg width="24" height="24" viewBox="0 0 24 24" fill="none" xmlns="http://www.w3.org/2000/svg">
<path d="M4.92749 15.4425H7.49999C7.59885 15.4406 7.69312 15.4004 7.76303 15.3305C7.83294 15.2606 7.87307 15.1663 7.87499 15.0675V13.23C7.87499 13.1305 7.83548 13.0351 7.76516 12.9648C7.69483 12.8945 7.59945 12.855 7.49999 12.855H4.92749C4.82803 12.855 4.73265 12.8945 4.66232 12.9648C4.592 13.0351 4.55249 13.1305 4.55249 13.23V15.0675C4.55441 15.1663 4.59454 15.2606 4.66445 15.3305C4.73436 15.4004 4.82864 15.4406 4.92749 15.4425Z" fill="#0A0A0B"/>
<path d="M4.92749 11.76H7.49999C7.59945 11.76 7.69483 11.7205 7.76516 11.6502C7.83548 11.5798 7.87499 11.4845 7.87499 11.385C7.87499 11.2856 7.83548 11.1902 7.76516 11.1198C7.69483 11.0495 7.59945 11.01 7.49999 11.01H4.92749C4.82803 11.01 4.73265 11.0495 4.66232 11.1198C4.592 11.1902 4.55249 11.2856 4.55249 11.385C4.55249 11.4845 4.592 11.5798 4.66232 11.6502C4.73265 11.7205 4.82803 11.76 4.92749 11.76Z" fill="#0A0A0B"/>
<path d="M6.21749 16.5376H4.92749C4.82803 16.5376 4.73265 16.5771 4.66232 16.6474C4.592 16.7178 4.55249 16.8131 4.55249 16.9126C4.55441 17.0115 4.59454 17.1057 4.66445 17.1756C4.73436 17.2456 4.82864 17.2857 4.92749 17.2876H6.21749C6.31635 17.2857 6.41062 17.2456 6.48053 17.1756C6.55044 17.1057 6.59057 17.0115 6.59249 16.9126C6.59249 16.8131 6.55298 16.7178 6.48266 16.6474C6.41233 16.5771 6.31695 16.5376 6.21749 16.5376Z" fill="#0A0A0B"/>
<path d="M9.00003 16.5376H7.71753C7.61807 16.5376 7.52269 16.5771 7.45236 16.6474C7.38204 16.7178 7.34253 16.8131 7.34253 16.9126C7.34253 17.0121 7.38204 17.1074 7.45236 17.1778C7.52269 17.2481 7.61807 17.2876 7.71753 17.2876H9.00003C9.09949 17.2876 9.19487 17.2481 9.26519 17.1778C9.33552 17.1074 9.37503 17.0121 9.37503 16.9126C9.37503 16.8131 9.33552 16.7178 9.26519 16.6474C9.19487 16.5771 9.09949 16.5376 9.00003 16.5376Z" fill="#0A0A0B"/>
<path d="M11.7975 16.5H10.5C10.4005 16.5 10.3052 16.5395 10.2348 16.6098C10.1645 16.6802 10.125 16.7755 10.125 16.875C10.1269 16.9739 10.167 17.0681 10.237 17.138C10.3069 17.208 10.4011 17.2481 10.5 17.25H11.7975C11.897 17.25 11.9923 17.2105 12.0627 17.1402C12.133 17.0698 12.1725 16.9745 12.1725 16.875C12.1706 16.7761 12.1305 16.6819 12.0605 16.612C11.9906 16.542 11.8964 16.5019 11.7975 16.5Z" fill="#0A0A0B"/>
<path d="M14.5725 16.5H13.2825C13.2336 16.5 13.1852 16.5097 13.1401 16.5287C13.095 16.5476 13.0542 16.5754 13.0199 16.6103C12.9857 16.6452 12.9588 16.6866 12.9408 16.7321C12.9228 16.7775 12.914 16.8261 12.915 16.875C12.915 16.9745 12.9545 17.0698 13.0248 17.1402C13.0952 17.2105 13.1905 17.25 13.29 17.25H14.5725C14.672 17.25 14.7673 17.2105 14.8377 17.1402C14.908 17.0698 14.9475 16.9745 14.9475 16.875C14.9475 16.7755 14.908 16.6802 14.8377 16.6098C14.7673 16.5395 14.672 16.5 14.5725 16.5Z" fill="#0A0A0B"/>
<path d="M21 4.875H6.855C6.75554 4.875 6.66016 4.91451 6.58983 4.98484C6.51951 5.05516 6.48 5.15054 6.48 5.25V9.1725H3C2.90054 9.1725 2.80516 9.21201 2.73484 9.28234C2.66451 9.35266 2.625 9.44804 2.625 9.5475V18.75C2.625 18.8495 2.66451 18.9448 2.73484 19.0152C2.80516 19.0855 2.90054 19.125 3 19.125H17.7825C17.8328 19.1257 17.8827 19.1161 17.9292 19.0968C17.9756 19.0774 18.0176 19.0487 18.0525 19.0125C18.1204 18.942 18.1581 18.8478 18.1575 18.75V15.4425H21C21.0995 15.4425 21.1948 15.403 21.2652 15.3327C21.3355 15.2623 21.375 15.167 21.375 15.0675V5.25C21.375 5.15054 21.3355 5.05516 21.2652 4.98484C21.1948 4.91451 21.0995 4.875 21 4.875ZM17.4075 18.375H3.375V9.9225H17.4075V18.375ZM20.625 14.6925H18.1575V9.5475C18.1575 9.44804 18.118 9.35266 18.0477 9.28234C17.9773 9.21201 17.882 9.1725 17.7825 9.1725H7.23V8.4225H20.6325L20.625 14.6925ZM7.245 6.375V5.625H20.625V6.4725L7.245 6.375Z" fill="#0A0A0B"/>
</svg>
