<svg width="101" height="18" viewBox="0 0 101 18" fill="none" xmlns="http://www.w3.org/2000/svg">
<rect x="0.31302" y="0.31302" width="25.249" height="17.374" rx="1.25208" fill="white" stroke="#D9D9D9" stroke-width="0.62604"/>
<path fill-rule="evenodd" clip-rule="evenodd" d="M13.1786 13.1595C12.1913 13.9879 10.9106 14.4879 9.51114 14.4879C6.38854 14.4879 3.85718 11.9983 3.85718 8.92718C3.85718 5.85608 6.38854 3.36646 9.51114 3.36646C10.9106 3.36646 12.1913 3.86651 13.1786 4.69485C14.1659 3.86652 15.4466 3.36647 16.846 3.36647C19.9686 3.36647 22.5 5.85609 22.5 8.92719C22.5 11.9983 19.9686 14.4879 16.846 14.4879C15.4466 14.4879 14.1659 13.9879 13.1786 13.1595Z" fill="#ED0006"/>
<path fill-rule="evenodd" clip-rule="evenodd" d="M13.1786 13.1595C14.3943 12.1396 15.1651 10.6219 15.1651 8.92718C15.1651 7.23244 14.3943 5.71478 13.1786 4.69484C14.1659 3.8665 15.4466 3.36646 16.846 3.36646C19.9686 3.36646 22.5 5.85608 22.5 8.92718C22.5 11.9983 19.9686 14.4879 16.846 14.4879C15.4466 14.4879 14.1659 13.9879 13.1786 13.1595Z" fill="#F9A000"/>
<path fill-rule="evenodd" clip-rule="evenodd" d="M13.1786 13.1595C14.3943 12.1395 15.1651 10.6219 15.1651 8.92715C15.1651 7.23242 14.3943 5.71476 13.1786 4.69482C11.963 5.71476 11.1921 7.23242 11.1921 8.92715C11.1921 10.6219 11.963 12.1395 13.1786 13.1595Z" fill="#FF5E00"/>
<rect x="30.7653" y="0.31302" width="25.249" height="17.374" rx="1.25208" fill="white" stroke="#D9D9D9" stroke-width="0.62604"/>
<path fill-rule="evenodd" clip-rule="evenodd" d="M38.3556 12.1937H36.7881L35.6126 7.64428C35.5568 7.43501 35.4384 7.25 35.2641 7.1628C34.8292 6.94367 34.35 6.76928 33.8273 6.68132V6.50617H36.3524C36.7009 6.50617 36.9623 6.76928 37.0059 7.07485L37.6158 10.3565L39.1825 6.50617H40.7065L38.3556 12.1937ZM41.5778 12.1937H40.0974L41.3164 6.50617H42.7968L41.5778 12.1937ZM44.712 8.08179C44.7556 7.77546 45.017 7.60031 45.3219 7.60031C45.8011 7.55633 46.3231 7.64428 46.7588 7.86266L47.0201 6.63811C46.5845 6.46296 46.1053 6.375 45.6704 6.375C44.2336 6.375 43.1881 7.16281 43.1881 8.25618C43.1881 9.08796 43.9287 9.5247 44.4514 9.78781C45.017 10.0502 45.2348 10.2253 45.1912 10.4877C45.1912 10.8812 44.7556 11.0563 44.3207 11.0563C43.798 11.0563 43.2752 10.9252 42.7968 10.706L42.5354 11.9313C43.0582 12.1497 43.6237 12.2377 44.1465 12.2377C45.7576 12.2809 46.7588 11.4938 46.7588 10.3125C46.7588 8.82485 44.712 8.73766 44.712 8.08179ZM51.9398 12.1937L50.7643 6.50617H49.5017C49.2404 6.50617 48.979 6.68132 48.8918 6.94367L46.7152 12.1937H48.2392L48.5433 11.3627H50.4158L50.5901 12.1937H51.9398ZM49.7196 8.03781L50.1544 10.1813H48.9354L49.7196 8.03781Z" fill="#172B85"/>
<path d="M99.8379 1H61.9712C61.3821 1 60.9045 1.48492 60.9045 2.08309V15.9169C60.9045 16.5151 61.3821 17 61.9712 17H99.8379C100.427 17 100.905 16.5151 100.905 15.9169V2.08309C100.905 1.48492 100.427 1 99.8379 1Z" fill="#00425F"/>
<path d="M70.1579 14.539C73.3243 14.539 75.8912 11.9326 75.8912 8.71738C75.8912 5.50218 73.3243 2.89575 70.1579 2.89575C66.9915 2.89575 64.4246 5.50218 64.4246 8.71738C64.4246 11.9326 66.9915 14.539 70.1579 14.539Z" fill="#EE312A"/>
<path d="M70.1579 11.201C68.8762 8.2509 67.9363 5.49512 67.9363 5.49512H65.9712C65.9712 5.49512 67.1672 9.03234 69.3888 13.4559H70.9269C73.1485 9.03234 74.3445 5.49512 74.3445 5.49512H72.3795C72.3795 5.49512 71.4396 8.2509 70.1579 11.201Z" fill="white"/>
<path d="M97.5505 10.8317H93.7213C93.7213 10.8317 93.8063 12.1383 95.5083 12.1383C96.3592 12.1383 97.2102 11.8768 97.2102 11.8768L97.3804 13.2701C97.3804 13.2701 96.5294 13.6185 95.3381 13.6185C93.6362 13.6185 92.1045 12.7476 92.1045 10.3092C92.1045 8.39327 93.2958 7.17407 94.9977 7.17407C97.5505 7.17407 97.7208 9.78667 97.5505 10.8317ZM94.9126 8.39327C93.8063 8.39327 93.7213 9.61247 93.7213 9.61247H96.1039C96.1039 9.61247 96.0188 8.39327 94.9126 8.39327Z" fill="white"/>
<path d="M84.3293 8.77836L84.5846 7.39233C84.5846 7.39233 82.6134 6.78331 81.0112 7.91209V13.4561H82.7129L82.7128 8.9516C83.3934 8.43185 84.3293 8.77836 84.3293 8.77836Z" fill="white"/>
<path d="M79.684 10.8317H75.8548C75.8548 10.8317 75.9398 12.1383 77.6417 12.1383C78.4926 12.1383 79.3436 11.8768 79.3436 11.8768L79.5138 13.2701C79.5138 13.2701 78.6629 13.6185 77.4715 13.6185C75.7696 13.6185 74.2379 12.7476 74.2379 10.3092C74.2379 8.39327 75.4293 7.17407 77.1312 7.17407C79.684 7.17407 79.8541 9.78667 79.684 10.8317ZM77.046 8.39327C75.9398 8.39327 75.8548 9.61247 75.8548 9.61247H78.2374C78.2374 9.61247 78.1523 8.39327 77.046 8.39327Z" fill="white"/>
<path d="M88.4779 11.3769C87.9474 10.0664 87.5193 8.71548 87.1978 7.33667L85.4912 7.3369C85.4912 7.3369 86.3446 10.6833 87.7954 13.4561H89.1604C90.6112 10.6833 91.4645 7.33752 91.4645 7.33752H89.7579C89.4363 8.71604 89.0083 10.0667 88.4779 11.3769Z" fill="white"/>
</svg>
