<svg width="38" height="36" viewBox="0 0 38 36" fill="none" xmlns="http://www.w3.org/2000/svg">
<path d="M29.9348 14.4021L26.4457 25.3913C26.1848 26.1739 25.5 26.6956 24.6848 26.6956H11.2174C10.4348 26.6956 9.68478 26.2065 9.42391 25.4891L4.27174 11.6956H1.30435C0.586957 11.6956 0 11.1087 0 10.3913C0 9.67387 0.586957 9.08691 1.30435 9.08691H5.18478C5.73913 9.08691 6.22826 9.44561 6.42391 9.96735L11.7391 24.0869H24.1304L26.9022 15.2826H11.5435C10.8261 15.2826 10.2391 14.6956 10.2391 13.9782C10.2391 13.2608 10.8261 12.6739 11.5435 12.6739H28.6957C29.1196 12.6739 29.5109 12.9021 29.7391 13.2282C30 13.5543 30.0652 14.0108 29.9348 14.4021ZM11.8696 28.4239C11.3152 28.4239 10.7609 28.6521 10.3696 29.0434C9.97826 29.4347 9.75 29.9891 9.75 30.5434C9.75 31.0978 9.97826 31.6521 10.3696 32.0434C10.7609 32.4347 11.3152 32.663 11.8696 32.663C12.4239 32.663 12.9783 32.4347 13.3696 32.0434C13.7609 31.6521 13.9891 31.0978 13.9891 30.5434C13.9891 29.9891 13.7609 29.4347 13.3696 29.0434C12.9783 28.6521 12.4239 28.4239 11.8696 28.4239ZM23.5761 28.4239C23.0217 28.4239 22.4674 28.6521 22.0761 29.0434C21.6848 29.4347 21.4565 29.9891 21.4565 30.5434C21.4565 31.0978 21.6848 31.6521 22.0761 32.0434C22.4674 32.4347 23.0217 32.663 23.5761 32.663C24.1304 32.663 24.6848 32.4347 25.0761 32.0434C25.4674 31.6521 25.6957 31.0978 25.6957 30.5434C25.6957 29.9891 25.4674 29.4347 25.0761 29.0434C24.6848 28.6521 24.1304 28.4239 23.5761 28.4239Z" fill="#0A0B0A"/>
<circle cx="30.5" cy="9" r="7.5" fill="#0F6100"/>
<path d="M29.4849 8.00439H30.2583C30.5591 8.00439 30.8079 7.95247 31.0049 7.84863C31.2054 7.74479 31.354 7.60156 31.4507 7.41895C31.5474 7.23633 31.5957 7.02686 31.5957 6.79053C31.5957 6.54346 31.5509 6.33219 31.4614 6.15674C31.3755 5.9777 31.243 5.83984 31.064 5.74316C30.8885 5.64648 30.6647 5.59814 30.3926 5.59814C30.1634 5.59814 29.9557 5.64469 29.7695 5.73779C29.5869 5.82731 29.4419 5.95622 29.3345 6.12451C29.2271 6.28923 29.1733 6.48617 29.1733 6.71533H27.8735C27.8735 6.29997 27.9827 5.93115 28.2012 5.60889C28.4196 5.28662 28.7168 5.03418 29.0928 4.85156C29.4723 4.66536 29.8984 4.57227 30.3711 4.57227C30.876 4.57227 31.3164 4.65641 31.6924 4.82471C32.0719 4.98942 32.3674 5.23649 32.5786 5.56592C32.7899 5.89535 32.8955 6.30355 32.8955 6.79053C32.8955 7.01253 32.8436 7.23812 32.7397 7.46729C32.6359 7.69645 32.4819 7.90592 32.2778 8.0957C32.0737 8.2819 31.8195 8.43408 31.5151 8.55225C31.2108 8.66683 30.8581 8.72412 30.457 8.72412H29.4849V8.00439ZM29.4849 9.01416V8.30518H30.457C30.9154 8.30518 31.3057 8.35889 31.6279 8.46631C31.9538 8.57373 32.2188 8.72233 32.4229 8.91211C32.627 9.09831 32.7756 9.31136 32.8687 9.55127C32.9653 9.79118 33.0137 10.0454 33.0137 10.314C33.0137 10.6792 32.9474 11.005 32.8149 11.2915C32.686 11.5744 32.5016 11.8143 32.2617 12.0112C32.0218 12.2082 31.7407 12.3568 31.4185 12.457C31.0998 12.5573 30.7524 12.6074 30.3765 12.6074C30.0399 12.6074 29.7176 12.5609 29.4097 12.4678C29.1017 12.3747 28.826 12.2368 28.5825 12.0542C28.339 11.868 28.1457 11.637 28.0024 11.3613C27.8628 11.082 27.793 10.7598 27.793 10.3945H29.0874C29.0874 10.6273 29.1411 10.8332 29.2485 11.0122C29.3595 11.1877 29.5135 11.3255 29.7104 11.4258C29.911 11.526 30.1401 11.5762 30.3979 11.5762C30.6701 11.5762 30.9046 11.5278 31.1016 11.4312C31.2985 11.3345 31.4489 11.1912 31.5527 11.0015C31.6602 10.8117 31.7139 10.5825 31.7139 10.314C31.7139 10.0096 31.6548 9.76253 31.5366 9.57275C31.4185 9.38298 31.2502 9.24333 31.0317 9.15381C30.8133 9.06071 30.5555 9.01416 30.2583 9.01416H29.4849Z" fill="#DEFFD8"/>
</svg>
