<svg width="30" height="25" viewBox="0 0 30 25" fill="none" xmlns="http://www.w3.org/2000/svg">
<path d="M29.9348 5.90213L26.4457 16.8913C26.1848 17.6739 25.5 18.1956 24.6848 18.1956H11.2174C10.4348 18.1956 9.68478 17.7065 9.42391 16.9891L4.27174 3.19561H1.30435C0.586957 3.19561 0 2.60865 0 1.89126C0 1.17387 0.586957 0.586914 1.30435 0.586914H5.18478C5.73913 0.586914 6.22826 0.94561 6.42391 1.46735L11.7391 15.5869H24.1304L26.9022 6.78257H11.5435C10.8261 6.78257 10.2391 6.19561 10.2391 5.47822C10.2391 4.76083 10.8261 4.17387 11.5435 4.17387H28.6957C29.1196 4.17387 29.5109 4.40213 29.7391 4.72822C30 5.05431 30.0652 5.51083 29.9348 5.90213ZM11.8696 19.9239C11.3152 19.9239 10.7609 20.1521 10.3696 20.5434C9.97826 20.9347 9.75 21.4891 9.75 22.0434C9.75 22.5978 9.97826 23.1521 10.3696 23.5434C10.7609 23.9347 11.3152 24.163 11.8696 24.163C12.4239 24.163 12.9783 23.9347 13.3696 23.5434C13.7609 23.1521 13.9891 22.5978 13.9891 22.0434C13.9891 21.4891 13.7609 20.9347 13.3696 20.5434C12.9783 20.1521 12.4239 19.9239 11.8696 19.9239ZM23.5761 19.9239C23.0217 19.9239 22.4674 20.1521 22.0761 20.5434C21.6848 20.9347 21.4565 21.4891 21.4565 22.0434C21.4565 22.5978 21.6848 23.1521 22.0761 23.5434C22.4674 23.9347 23.0217 24.163 23.5761 24.163C24.1304 24.163 24.6848 23.9347 25.0761 23.5434C25.4674 23.1521 25.6957 22.5978 25.6957 22.0434C25.6957 21.4891 25.4674 20.9347 25.0761 20.5434C24.6848 20.1521 24.1304 19.9239 23.5761 19.9239Z" fill="#0A0B0A"/>
</svg>
