<svg width="18" height="18" viewBox="0 0 18 18" fill="none" xmlns="http://www.w3.org/2000/svg">
<path d="M17.9609 4.05809L15.8674 12.4481C15.7109 13.0456 15.3 13.444 14.8109 13.444H6.73043C6.26087 13.444 5.81087 13.0705 5.65435 12.5228L2.56304 1.9917H0.782609C0.352174 1.9917 0 1.54357 0 0.995851C0 0.448133 0.352174 0 0.782609 0H3.11087C3.44348 0 3.73696 0.273859 3.85435 0.672199L7.04348 11.4523H14.4783L16.1413 4.73029H6.92609C6.49565 4.73029 6.14348 4.28216 6.14348 3.73444C6.14348 3.18672 6.49565 2.73859 6.92609 2.73859H17.2174C17.4717 2.73859 17.7065 2.91286 17.8435 3.16183C18 3.41079 18.0391 3.75934 17.9609 4.05809ZM7.12174 14.7635C6.78913 14.7635 6.45652 14.9378 6.22174 15.2365C5.98696 15.5353 5.85 15.9585 5.85 16.3817C5.85 16.805 5.98696 17.2282 6.22174 17.527C6.45652 17.8257 6.78913 18 7.12174 18C7.45435 18 7.78696 17.8257 8.02174 17.527C8.25652 17.2282 8.39348 16.805 8.39348 16.3817C8.39348 15.9585 8.25652 15.5353 8.02174 15.2365C7.78696 14.9378 7.45435 14.7635 7.12174 14.7635ZM14.1457 14.7635C13.813 14.7635 13.4804 14.9378 13.2457 15.2365C13.0109 15.5353 12.8739 15.9585 12.8739 16.3817C12.8739 16.805 13.0109 17.2282 13.2457 17.527C13.4804 17.8257 13.813 18 14.1457 18C14.4783 18 14.8109 17.8257 15.0457 17.527C15.2804 17.2282 15.4174 16.805 15.4174 16.3817C15.4174 15.9585 15.2804 15.5353 15.0457 15.2365C14.8109 14.9378 14.4783 14.7635 14.1457 14.7635Z" fill="#DEFFD8"/>
</svg>
