<svg width="18" height="18" viewBox="0 0 18 18" fill="none" xmlns="http://www.w3.org/2000/svg">
<g clip-path="url(#clip0_153_7746)">
<path d="M9 17.4375C7.33122 17.4375 5.69992 16.9427 4.31238 16.0155C2.92484 15.0884 1.84338 13.7706 1.20477 12.2289C0.566156 10.6871 0.399065 8.99064 0.724628 7.35393C1.05019 5.71721 1.85378 4.2138 3.03379 3.03379C4.2138 1.85378 5.71721 1.05019 7.35393 0.724628C8.99064 0.399065 10.6871 0.566156 12.2289 1.20477C13.7706 1.84338 15.0884 2.92484 16.0155 4.31238C16.9427 5.69992 17.4375 7.33122 17.4375 9C17.4375 11.2378 16.5486 13.3839 14.9662 14.9662C13.3839 16.5486 11.2378 17.4375 9 17.4375ZM9 1.6875C7.55373 1.6875 6.13993 2.11637 4.9374 2.91988C3.73486 3.72339 2.7976 4.86545 2.24413 6.20163C1.69067 7.53782 1.54586 9.00812 1.82801 10.4266C2.11017 11.8451 2.80661 13.1481 3.82929 14.1707C4.85196 15.1934 6.15492 15.8898 7.57341 16.172C8.99189 16.4542 10.4622 16.3093 11.7984 15.7559C13.1346 15.2024 14.2766 14.2651 15.0801 13.0626C15.8836 11.8601 16.3125 10.4463 16.3125 9C16.3125 7.06061 15.5421 5.20065 14.1707 3.82929C12.7994 2.45793 10.9394 1.6875 9 1.6875Z" fill="#101820" fill-opacity="0.48"/>
<path d="M7.68934 12.375C7.61221 12.3748 7.53595 12.3587 7.46532 12.3277C7.39468 12.2967 7.33116 12.2516 7.27871 12.195L4.65184 9.38252C4.56208 9.27183 4.51768 9.1312 4.52761 8.98903C4.53755 8.84687 4.60107 8.71378 4.70534 8.61664C4.80962 8.51951 4.94688 8.46557 5.08939 8.46574C5.2319 8.4659 5.36903 8.52015 5.47309 8.61752L7.68934 10.9856L12.5268 5.80502C12.5754 5.74512 12.6358 5.69585 12.7042 5.66026C12.7726 5.62468 12.8476 5.60354 12.9245 5.59817C13.0015 5.59279 13.0787 5.6033 13.1514 5.62902C13.2241 5.65475 13.2907 5.69514 13.3471 5.74771C13.4036 5.80027 13.4486 5.86388 13.4794 5.93457C13.5102 6.00527 13.5262 6.08154 13.5262 6.15866C13.5263 6.23578 13.5106 6.31209 13.4799 6.38285C13.4493 6.45362 13.4044 6.51733 13.3481 6.57002L8.09996 12.195C8.04751 12.2516 7.984 12.2967 7.91336 12.3277C7.84272 12.3587 7.76646 12.3748 7.68934 12.375Z" fill="#101820" fill-opacity="0.48"/>
</g>
<defs>
<clipPath id="clip0_153_7746">
<rect width="18" height="18" fill="white"/>
</clipPath>
</defs>
</svg>
