<svg width="24" height="24" viewBox="0 0 24 24" fill="none" xmlns="http://www.w3.org/2000/svg">
<g clip-path="url(#clip0_148_5139)">
<path d="M23.1429 3.75H18.7296L16.9082 1.08984C16.3982 0.413766 15.6107 0 14.7107 0H9.28929C8.38929 0 7.55357 0.413766 7.09286 1.08984L5.27036 3.75H0.857143C0.381696 3.75 0 4.08422 0 4.5V5.25C0 5.66719 0.381696 6 0.857143 6H1.71429V21C1.71429 22.657 3.24911 24 5.14286 24H18.8571C20.7509 24 22.2857 22.657 22.2857 21V6H23.1429C23.6196 6 24 5.66719 24 5.25V4.5C24 4.08422 23.6196 3.75 23.1429 3.75ZM9.20893 2.385C9.2625 2.30297 9.36964 2.25 9.48214 2.25H14.5179C14.6317 2.25 14.7388 2.30273 14.7924 2.38477L15.7286 3.75H8.27143L9.20893 2.385ZM18.8571 21.75H5.14286C4.66945 21.75 4.28571 21.4142 4.28571 21V6H19.7143V21C19.7143 21.4125 19.3286 21.75 18.8571 21.75ZM12 19.5C12.4738 19.5 12.8571 19.1646 12.8571 18.75V9C12.8571 8.58544 12.4738 8.25 12 8.25C11.5262 8.25 11.1429 8.5875 11.1429 9V18.75C11.1429 19.1625 11.5286 19.5 12 19.5ZM7.71429 19.5C8.18571 19.5 8.57143 19.1625 8.57143 18.75V9C8.57143 8.58544 8.18807 8.25 7.71429 8.25C7.2405 8.25 6.85714 8.5875 6.85714 9V18.75C6.85714 19.1625 7.24286 19.5 7.71429 19.5ZM16.2857 19.5C16.7595 19.5 17.1429 19.1646 17.1429 18.75V9C17.1429 8.58544 16.7595 8.25 16.2857 8.25C15.8119 8.25 15.4286 8.5875 15.4286 9V18.75C15.4286 19.1625 15.8143 19.5 16.2857 19.5Z" fill="#0A0A0B"/>
</g>
<defs>
<clipPath id="clip0_148_5139">
<rect width="24" height="24" fill="white"/>
</clipPath>
</defs>
</svg>
