<svg width="26" height="24" viewBox="0 0 26 24" fill="none" xmlns="http://www.w3.org/2000/svg">
<path d="M12.9999 23.7849C12.8641 23.785 12.7295 23.7583 12.604 23.7063C12.4785 23.6543 12.3645 23.578 12.2685 23.4818L2.39338 13.6066C-0.631451 10.5818 -0.631451 5.6597 2.39338 2.63488C5.2982 -0.272021 9.95441 -0.388918 12.9999 2.29143C16.0434 -0.385814 20.6996 -0.273056 23.6065 2.63488C26.6313 5.6597 26.6313 10.5828 23.6065 13.6066L13.7313 23.4818C13.6354 23.578 13.5214 23.6543 13.3959 23.7063C13.2703 23.7583 13.1358 23.785 12.9999 23.7849ZM7.88027 2.43315C7.13303 2.43184 6.39289 2.57811 5.70232 2.86357C5.01175 3.14903 4.38435 3.56806 3.85613 4.0966C2.79044 5.16428 2.1919 6.61118 2.1919 8.1197C2.1919 9.62823 2.79044 11.0751 3.85613 12.1428L12.9999 21.2866L22.1437 12.1428C23.2094 11.0751 23.808 9.62823 23.808 8.1197C23.808 6.61118 23.2094 5.16428 22.1437 4.0966C21.076 3.0309 19.6291 2.43237 18.1206 2.43237C16.6121 2.43237 15.1652 3.0309 14.0975 4.0966L13.7313 4.46281C13.6353 4.55896 13.5213 4.63524 13.3958 4.68728C13.2703 4.73933 13.1358 4.76612 12.9999 4.76612C12.8641 4.76612 12.7295 4.73933 12.604 4.68728C12.4785 4.63524 12.3645 4.55896 12.2685 4.46281L11.9023 4.0966C11.3745 3.56807 10.7475 3.14904 10.0573 2.86357C9.36704 2.57811 8.62721 2.43183 7.88027 2.43315Z" fill="#0A0B0A"/>
</svg>
