<svg width="22" height="23" viewBox="0 0 22 23" fill="none" xmlns="http://www.w3.org/2000/svg">
<path d="M21.3109 7.26999L21.3108 7.26999L21.3111 7.27467C21.4126 9.06244 21.4126 14.4537 21.3111 16.2414L21.3109 16.2447C21.2262 17.9353 20.8454 19.345 19.6892 20.5012L19.6885 20.5019C18.5325 21.6622 17.1235 22.0429 15.4341 22.1229L15.4294 22.1231C13.6417 22.2246 8.24554 22.2246 6.45778 22.1231L6.45448 22.1229C4.76465 22.0382 3.35895 21.6577 2.19736 20.5005C1.03698 19.3445 0.656343 17.9355 0.576345 16.2461L0.576367 16.2461L0.576101 16.2414C0.474633 14.4537 0.474633 9.05756 0.576101 7.26979L0.576112 7.26979L0.576277 7.26649C0.661095 5.57485 1.03744 4.16623 2.19736 3.01072C3.35874 1.85376 4.76897 1.47321 6.45316 1.39324L6.45316 1.39326L6.45778 1.393C8.24554 1.29153 13.6417 1.29153 15.4294 1.393L15.4294 1.39301L15.4327 1.39317C17.1233 1.47793 18.533 1.85874 19.6892 3.01493L19.6898 3.0156C20.8502 4.17158 21.2309 5.58062 21.3109 7.26999ZM17.5806 20.7531L17.5823 20.7524C18.6705 20.316 19.509 19.4783 19.9409 18.3931C20.2636 17.5821 20.3719 16.2817 20.41 15.0573C20.4379 14.1633 20.4287 13.2512 20.4213 12.5204C20.4184 12.2346 20.4158 11.9764 20.4158 11.7581C20.4158 11.5396 20.4184 11.2816 20.4213 10.9958C20.4287 10.2655 20.4379 9.35411 20.41 8.46062C20.3719 7.23658 20.2636 5.93663 19.9411 5.12352L19.9404 5.12176C19.504 4.03359 18.6663 3.19508 17.5811 2.76322L17.5798 2.76268C16.7696 2.44301 15.47 2.33466 14.2456 2.2959C13.3448 2.26739 12.4263 2.2762 11.6929 2.28323C11.4133 2.28591 11.1606 2.28833 10.946 2.28833C10.7276 2.28833 10.4696 2.28572 10.1838 2.28283C9.45345 2.27544 8.5421 2.26621 7.64861 2.29407C6.42457 2.33222 5.12462 2.44052 4.31151 2.763L4.31151 2.763L4.30975 2.76371C3.22157 3.20008 2.38307 4.03778 1.95121 5.12298L1.95067 5.12435C1.631 5.93455 1.52265 7.23407 1.48389 8.45855C1.45538 9.35929 1.46419 10.2778 1.47122 11.0112C1.4739 11.2908 1.47632 11.5435 1.47632 11.7581C1.47632 11.9765 1.47371 12.2345 1.47082 12.5203C1.46342 13.2507 1.4542 14.162 1.48205 15.0555C1.52021 16.2795 1.62851 17.5795 1.95099 18.3926L1.9517 18.3944C2.38807 19.4825 3.22577 20.321 4.31097 20.7529L4.31234 20.7534C5.12253 21.0731 6.42205 21.1815 7.64654 21.2202C8.54727 21.2487 9.46574 21.2399 10.1992 21.2329C10.4788 21.2302 10.7315 21.2278 10.946 21.2278C11.1645 21.2278 11.4225 21.2304 11.7083 21.2333C12.4386 21.2407 13.35 21.2499 14.2435 21.222C15.4675 21.1839 16.7675 21.0756 17.5806 20.7531ZM5.83569 11.7581C5.83569 8.92873 8.11672 6.64771 10.946 6.64771C13.7754 6.64771 16.0564 8.92873 16.0564 11.7581C16.0564 14.5874 13.7754 16.8684 10.946 16.8684C8.11672 16.8684 5.83569 14.5874 5.83569 11.7581ZM6.79858 11.7581C6.79858 14.0464 8.6635 15.9055 10.946 15.9055C13.2286 15.9055 15.0935 14.0464 15.0935 11.7581C15.0935 9.4702 13.2339 7.6106 10.946 7.6106C8.65818 7.6106 6.79858 9.4702 6.79858 11.7581ZM17.5945 5.91821C17.5945 6.36839 17.2336 6.72681 16.7859 6.72681C16.3357 6.72681 15.9773 6.36594 15.9773 5.91821C15.9773 5.4717 16.3394 5.10962 16.7859 5.10962C17.2324 5.10962 17.5945 5.4717 17.5945 5.91821Z" fill="#0A0A0B" stroke="#0A0A0B"/>
</svg>
