<svg width="40" height="40" viewBox="0 0 40 40" fill="none" xmlns="http://www.w3.org/2000/svg">
<g opacity="0.5">
<path d="M39.5 20C39.5 9.23045 30.7696 0.5 20 0.5C9.23045 0.5 0.5 9.23045 0.5 20C0.5 30.7696 9.23045 39.5 20 39.5C30.7696 39.5 39.5 30.7696 39.5 20Z" fill="#FAFAFA"/>
<path d="M39.5 20C39.5 9.23045 30.7696 0.5 20 0.5C9.23045 0.5 0.5 9.23045 0.5 20C0.5 30.7696 9.23045 39.5 20 39.5C30.7696 39.5 39.5 30.7696 39.5 20Z" stroke="#CCCBCB"/>
<path d="M24.6667 20H15.3334" stroke="#0A0B0A" stroke-width="1.5" stroke-linecap="round" stroke-linejoin="round"/>
<path d="M20 15.3335L15.3333 20.0002L20 24.6668" stroke="#0A0B0A" stroke-width="1.5" stroke-linecap="round" stroke-linejoin="round"/>
</g>
</svg>
