<svg width="19" height="18" viewBox="0 0 19 18" fill="none" xmlns="http://www.w3.org/2000/svg">
<mask id="path-1-outside-1_244_200" maskUnits="userSpaceOnUse" x="-1" y="-1.18311" width="21" height="20" fill="black">
<rect fill="white" x="-1" y="-1.18311" width="21" height="20"/>
<path d="M3.875 5.13721V17.8169H0.488281V5.13721H3.875ZM0.277344 1.83252C0.277344 1.34033 0.449219 0.934082 0.792969 0.61377C1.13672 0.293457 1.59766 0.133301 2.17578 0.133301C2.74609 0.133301 3.20312 0.293457 3.54688 0.61377C3.89844 0.934082 4.07422 1.34033 4.07422 1.83252C4.07422 2.32471 3.89844 2.73096 3.54688 3.05127C3.20312 3.37158 2.74609 3.53174 2.17578 3.53174C1.59766 3.53174 1.13672 3.37158 0.792969 3.05127C0.449219 2.73096 0.277344 2.32471 0.277344 1.83252ZM10.4488 7.84424V17.8169H7.07375V5.13721H10.2378L10.4488 7.84424ZM9.95656 11.0317H9.0425C9.0425 10.0942 9.16359 9.25049 9.40578 8.50049C9.64797 7.74268 9.98781 7.09814 10.4253 6.56689C10.8628 6.02783 11.3823 5.61768 11.9839 5.33643C12.5933 5.04736 13.273 4.90283 14.023 4.90283C14.6167 4.90283 15.1597 4.98877 15.6519 5.16064C16.1441 5.33252 16.5659 5.60596 16.9175 5.98096C17.2769 6.35596 17.5503 6.85205 17.7378 7.46924C17.9331 8.08643 18.0308 8.84033 18.0308 9.73096V17.8169H14.6323V9.71924C14.6323 9.15674 14.5542 8.71924 14.398 8.40674C14.2417 8.09424 14.0113 7.87549 13.7066 7.75049C13.4097 7.61768 13.0425 7.55127 12.605 7.55127C12.1519 7.55127 11.7573 7.64111 11.4214 7.8208C11.0933 8.00049 10.8198 8.25049 10.6011 8.5708C10.3902 8.8833 10.23 9.25049 10.1206 9.67236C10.0113 10.0942 9.95656 10.5474 9.95656 11.0317Z"/>
</mask>
<path d="M3.875 5.13721H4.875V4.13721H3.875V5.13721ZM3.875 17.8169V18.8169H4.875V17.8169H3.875ZM0.488281 17.8169H-0.511719V18.8169H0.488281V17.8169ZM0.488281 5.13721V4.13721H-0.511719V5.13721H0.488281ZM3.54688 0.61377L2.86511 1.34542L2.87338 1.35297L3.54688 0.61377ZM3.54688 3.05127L2.87334 2.31203L2.86515 2.31966L3.54688 3.05127ZM2.875 5.13721V17.8169H4.875V5.13721H2.875ZM3.875 16.8169H0.488281V18.8169H3.875V16.8169ZM1.48828 17.8169V5.13721H-0.511719V17.8169H1.48828ZM0.488281 6.13721H3.875V4.13721H0.488281V6.13721ZM1.27734 1.83252C1.27734 1.60294 1.34456 1.46664 1.47469 1.34538L0.111243 -0.117839C-0.446119 0.401522 -0.722656 1.07772 -0.722656 1.83252H1.27734ZM1.47469 1.34538C1.59293 1.2352 1.78943 1.1333 2.17578 1.1333V-0.866699C1.40589 -0.866699 0.680504 -0.648286 0.111243 -0.117839L1.47469 1.34538ZM2.17578 1.1333C2.55015 1.1333 2.74441 1.23287 2.86515 1.34538L4.2286 -0.117839C3.66184 -0.645961 2.94203 -0.866699 2.17578 -0.866699V1.1333ZM2.87338 1.35297C3.00888 1.47642 3.07422 1.61056 3.07422 1.83252H5.07422C5.07422 1.0701 4.78799 0.391747 4.22037 -0.125427L2.87338 1.35297ZM3.07422 1.83252C3.07422 2.05448 3.00888 2.18862 2.87338 2.31207L4.22037 3.79047C4.78799 3.27329 5.07422 2.59494 5.07422 1.83252H3.07422ZM2.86515 2.31966C2.74441 2.43216 2.55015 2.53174 2.17578 2.53174V4.53174C2.94203 4.53174 3.66184 4.311 4.2286 3.78288L2.86515 2.31966ZM2.17578 2.53174C1.78943 2.53174 1.59293 2.42984 1.47469 2.31966L0.111243 3.78288C0.680504 4.31332 1.40589 4.53174 2.17578 4.53174V2.53174ZM1.47469 2.31966C1.34456 2.1984 1.27734 2.0621 1.27734 1.83252H-0.722656C-0.722656 2.58732 -0.446119 3.26352 0.111243 3.78288L1.47469 2.31966ZM10.4487 7.84424H11.4487V7.80534L11.4457 7.76655L10.4487 7.84424ZM10.4487 17.8169V18.8169H11.4487V17.8169H10.4487ZM7.07375 17.8169H6.07375V18.8169H7.07375V17.8169ZM7.07375 5.13721V4.13721H6.07375V5.13721H7.07375ZM10.2378 5.13721L11.2348 5.05952L11.1629 4.13721H10.2378V5.13721ZM9.95656 11.0317V12.0317H10.9566V11.0317H9.95656ZM9.0425 11.0317H8.0425V12.0317H9.0425V11.0317ZM9.40578 8.50049L10.3574 8.80778L10.3583 8.80491L9.40578 8.50049ZM10.4253 6.56689L11.1973 7.20262L11.2018 7.19706L10.4253 6.56689ZM11.9839 5.33643L12.4074 6.24232L12.4125 6.23993L11.9839 5.33643ZM16.9175 5.98096L16.1879 6.66494L16.1955 6.67286L16.9175 5.98096ZM17.7378 7.46924L16.7809 7.75994L16.7844 7.77095L17.7378 7.46924ZM18.0308 17.8169V18.8169H19.0308V17.8169H18.0308ZM14.6323 17.8169H13.6323V18.8169H14.6323V17.8169ZM13.7066 7.75049L13.2982 8.66331L13.3125 8.66971L13.327 8.67566L13.7066 7.75049ZM11.4214 7.8208L10.9497 6.93897L10.9411 6.9437L11.4214 7.8208ZM10.6011 8.5708L9.77528 8.00683L9.77225 8.01133L10.6011 8.5708ZM9.44875 7.84424V17.8169H11.4487V7.84424H9.44875ZM10.4487 16.8169H7.07375V18.8169H10.4487V16.8169ZM8.07375 17.8169V5.13721H6.07375V17.8169H8.07375ZM7.07375 6.13721H10.2378V4.13721H7.07375V6.13721ZM9.24083 5.21489L9.45177 7.92192L11.4457 7.76655L11.2348 5.05952L9.24083 5.21489ZM9.95656 10.0317H9.0425V12.0317H9.95656V10.0317ZM10.0425 11.0317C10.0425 10.1794 10.1527 9.44176 10.3574 8.80778L8.45417 8.1932C8.17451 9.05922 8.0425 10.0091 8.0425 11.0317H10.0425ZM10.3583 8.80491C10.5678 8.14936 10.852 7.62184 11.1972 7.2026L9.65338 5.93119C9.12364 6.57445 8.72811 7.33599 8.45324 8.19607L10.3583 8.80491ZM11.2018 7.19706C11.5484 6.76992 11.9491 6.45659 12.4074 6.24231L11.5604 4.43054C10.8156 4.77876 10.1772 5.28574 9.64885 5.93673L11.2018 7.19706ZM12.4125 6.23993C12.8736 6.02121 13.4045 5.90283 14.023 5.90283V3.90283C13.1415 3.90283 12.313 4.07352 11.5553 4.43292L12.4125 6.23993ZM14.023 5.90283C14.5198 5.90283 14.9496 5.97462 15.3222 6.10474L15.9816 4.21655C15.3698 4.00292 14.7136 3.90283 14.023 3.90283V5.90283ZM15.3222 6.10474C15.6643 6.22421 15.9484 6.40933 16.188 6.6649L17.647 5.29702C17.1835 4.80258 16.6238 4.44083 15.9816 4.21655L15.3222 6.10474ZM16.1955 6.67286C16.423 6.91029 16.6283 7.25743 16.781 7.75992L18.6946 7.17856C18.4723 6.44668 18.1307 5.80163 17.6395 5.28905L16.1955 6.67286ZM16.7844 7.77095C16.9397 8.26161 17.0308 8.90714 17.0308 9.73096H19.0308C19.0308 8.77353 18.9266 7.91124 18.6912 7.16753L16.7844 7.77095ZM17.0308 9.73096V17.8169H19.0308V9.73096H17.0308ZM18.0308 16.8169H14.6323V18.8169H18.0308V16.8169ZM15.6323 17.8169V9.71924H13.6323V17.8169H15.6323ZM15.6323 9.71924C15.6323 9.08577 15.5479 8.4705 15.2924 7.95952L13.5035 8.85395C13.5606 8.96798 13.6323 9.2277 13.6323 9.71924H15.6323ZM15.2924 7.95952C15.0351 7.44501 14.629 7.04803 14.0861 6.82532L13.327 8.67566C13.3935 8.70295 13.4483 8.74347 13.5035 8.85395L15.2924 7.95952ZM14.1149 6.83767C13.6534 6.63118 13.1373 6.55127 12.605 6.55127V8.55127C12.9477 8.55127 13.166 8.60417 13.2982 8.66331L14.1149 6.83767ZM12.605 6.55127C12.0184 6.55127 11.4559 6.66827 10.9498 6.93902L11.8931 8.70259C12.0588 8.61395 12.2853 8.55127 12.605 8.55127V6.55127ZM10.9411 6.9437C10.4696 7.20192 10.0795 7.56133 9.77529 8.00684L11.4269 9.13476C11.5601 8.93964 11.717 8.79906 11.9017 8.6979L10.9411 6.9437ZM9.77225 8.01133C9.48867 8.43143 9.28615 8.90638 9.15263 9.4214L11.0886 9.92332C11.1738 9.5946 11.2916 9.33517 11.4299 9.13027L9.77225 8.01133ZM9.15263 9.4214C9.01979 9.93376 8.95656 10.472 8.95656 11.0317H10.9566C10.9566 10.6228 11.0027 10.2547 11.0886 9.92332L9.15263 9.4214Z" fill="#0A0A0B" mask="url(#path-1-outside-1_244_200)"/>
</svg>
