<svg width="111" height="34" viewBox="0 0 111 34" fill="none" xmlns="http://www.w3.org/2000/svg">
<path d="M33.8946 16.7358C33.8946 14.5381 33.4573 12.3618 32.6076 10.3313C31.7578 8.30083 30.5124 6.45588 28.9423 4.90182C27.3722 3.34775 25.5082 2.115 23.4568 1.27394C21.4054 0.432885 19.2067 -9.60681e-08 16.9863 0C14.7658 9.60681e-08 12.5671 0.432886 10.5157 1.27394C8.46428 2.115 6.60032 3.34775 5.03023 4.90182C3.46014 6.45588 2.21468 8.30083 1.36495 10.3313C0.515229 12.3618 0.0778807 14.5381 0.0778809 16.7358L16.9863 16.7358H33.8946Z" fill="#DEFFD8"/>
<path d="M0.0394805 16.9508C0.0342923 19.1552 0.467428 21.339 1.31416 23.3776C2.16088 25.4162 3.40462 27.2697 4.97436 28.8321C6.5441 30.3946 8.40909 31.6354 10.4629 32.4839C12.5166 33.3323 14.7189 33.7717 16.9441 33.7769C19.1692 33.7821 21.3736 33.3531 23.4313 32.5144C25.4891 31.6756 27.3599 30.4436 28.9369 28.8885C30.514 27.3335 31.7665 25.4859 32.6228 23.4513C33.4791 21.4167 33.9225 19.2349 33.9277 17.0305L16.9836 16.9907L0.0394805 16.9508Z" fill="#0F6100"/>
<path d="M35.8234 23.1666C35.2993 23.1666 34.9499 23.072 34.7752 22.8827C34.6005 22.6935 34.6005 22.5042 34.7752 22.315C34.9499 22.1257 35.2993 22.0311 35.8234 22.0311C35.5613 22.0311 35.3502 21.9219 35.1901 21.7036C35.03 21.4706 34.9208 21.1868 34.8626 20.852C34.8189 20.5171 34.8189 20.1823 34.8626 19.8475C34.9208 19.4981 35.03 19.2143 35.1901 18.9959C35.3502 18.763 35.5613 18.6465 35.8234 18.6465C35.4594 18.6465 35.1828 18.5301 34.9936 18.2971C34.8043 18.0497 34.7097 17.7731 34.7097 17.4674C34.7097 17.1617 34.8043 16.8924 34.9936 16.6594C35.1828 16.412 35.4594 16.2882 35.8234 16.2882C35.3284 16.2882 34.9936 16.1936 34.8189 16.0044C34.6588 15.8151 34.6588 15.6259 34.8189 15.4366C34.9936 15.2474 35.3284 15.1527 35.8234 15.1527C35.3138 15.1527 34.9717 15.08 34.7971 14.9344C34.6369 14.7888 34.6369 14.6505 34.7971 14.5195C34.9717 14.3739 35.3138 14.3011 35.8234 14.3011C35.3138 14.3011 34.9717 14.2138 34.7971 14.0391C34.6369 13.8644 34.6369 13.6897 34.7971 13.515C34.9717 13.3404 35.3138 13.253 35.8234 13.253C35.3575 13.253 35.0445 13.1438 34.8844 12.9255C34.7388 12.7071 34.7388 12.4887 34.8844 12.2704C35.0445 12.052 35.3575 11.9428 35.8234 11.9428C35.5904 11.608 35.5249 11.3242 35.6268 11.0912C35.7287 10.8583 35.9034 10.7419 36.1509 10.7419C36.4129 10.7273 36.6604 10.8874 36.8933 11.2223C36.8933 10.6545 37.0025 10.2833 37.2209 10.1086C37.4392 9.91937 37.6576 9.91937 37.8759 10.1086C38.0943 10.2833 38.2035 10.6545 38.2035 11.2223C38.2035 10.8001 38.3054 10.4871 38.5092 10.2833C38.713 10.0795 38.9459 9.9776 39.2079 9.9776C39.47 9.9776 39.7029 10.0795 39.9067 10.2833C40.1105 10.4871 40.2124 10.8001 40.2124 11.2223C40.2124 10.8729 40.307 10.6181 40.4963 10.458C40.7001 10.2833 40.9257 10.196 41.1732 10.196C41.4207 10.196 41.639 10.2833 41.8283 10.458C42.0321 10.6181 42.134 10.8729 42.134 11.2223C42.1776 10.8874 42.3523 10.6545 42.658 10.5235C42.9783 10.3925 43.3277 10.3561 43.7062 10.4143C44.0847 10.458 44.4049 10.5817 44.667 10.7855C44.929 10.9893 45.0382 11.2586 44.9945 11.5935C45.2129 11.0694 45.4385 10.7564 45.6714 10.6545C45.9043 10.5526 46.0645 10.6254 46.1518 10.8729C46.2392 11.1058 46.1809 11.4843 45.9771 12.0084C46.1664 11.8191 46.3993 11.7827 46.6759 11.8992C46.967 12.0011 47.2363 12.183 47.4838 12.4451C47.7458 12.7071 47.9205 12.9837 48.0079 13.2748C48.1098 13.566 48.0661 13.8062 47.8769 13.9954C48.2554 13.9081 48.5538 13.9299 48.7721 14.0609C49.0051 14.1774 49.1434 14.3448 49.187 14.5632C49.2453 14.767 49.1943 14.9708 49.0342 15.1746C48.8886 15.3784 48.6266 15.524 48.2481 15.6113C48.5101 15.6841 48.6702 15.8806 48.7285 16.2009C48.7867 16.5066 48.7649 16.8487 48.663 17.2272C48.5611 17.5911 48.4009 17.8968 48.1826 18.1443C47.9788 18.3772 47.7458 18.4573 47.4838 18.3845C47.7604 18.7047 47.8477 19.0177 47.7458 19.3234C47.6585 19.6291 47.4911 19.8548 47.2436 20.0004C47.331 20.2187 47.1563 20.4152 46.7195 20.5899C46.9961 20.6045 47.2436 20.7137 47.462 20.9175C47.6803 21.1213 47.8405 21.3687 47.9424 21.6599C48.0443 21.9365 48.0588 22.2131 47.986 22.4897C47.9133 22.7663 47.7313 22.9919 47.4401 23.1666C47.8769 22.9191 48.2117 22.8172 48.4446 22.8609C48.6921 22.89 48.794 23.0064 48.7503 23.2103C48.7066 23.3995 48.4955 23.6179 48.1171 23.8653C48.4519 23.6906 48.7285 23.6761 48.9468 23.8217C49.1652 23.9527 49.2671 24.1565 49.2525 24.4331C49.2525 24.6951 49.0778 24.9499 48.7285 25.1973C48.7285 25.4885 48.6193 25.7214 48.4009 25.8961C48.1971 26.0708 47.9424 26.1872 47.6367 26.2455C47.331 26.3037 47.0253 26.3037 46.7195 26.2455C46.4138 26.1872 46.1518 26.0708 45.9334 25.8961C45.7296 25.7214 45.6277 25.4885 45.6277 25.1973C45.4967 25.4885 45.3002 25.6632 45.0382 25.7214C44.7761 25.7651 44.5141 25.7287 44.2521 25.6122C43.99 25.4958 43.7935 25.3211 43.6625 25.0882C43.5315 24.8407 43.5315 24.5786 43.6625 24.3021C43.3859 24.4185 43.1312 24.4331 42.8982 24.3457C42.6799 24.2438 42.5125 24.0837 42.396 23.8653C42.2795 23.647 42.2359 23.4213 42.265 23.1884C42.3087 22.9409 42.447 22.7371 42.6799 22.577C42.3887 22.708 42.0903 22.6716 41.7846 22.4678C41.4934 22.264 41.2824 22.002 41.1514 21.6817C41.0494 21.74 40.933 21.7691 40.802 21.7691C40.8748 22.0311 40.8384 22.2931 40.6928 22.5552C40.5618 22.8026 40.3216 22.9264 39.9722 22.9264C40.2634 22.9264 40.4817 23.0064 40.6273 23.1666C40.7729 23.3267 40.8456 23.5087 40.8456 23.7125C40.8456 23.9163 40.7729 24.0983 40.6273 24.2584C40.4817 24.404 40.2634 24.4767 39.9722 24.4767C40.1906 24.7679 40.2634 25.0226 40.1906 25.241C40.1178 25.4448 39.9649 25.5613 39.732 25.5904C39.5136 25.6049 39.2953 25.4739 39.0769 25.1973C39.0769 25.5467 38.9605 25.816 38.7275 26.0053C38.5092 26.1945 38.2326 26.2891 37.8978 26.2891C37.5775 26.3037 37.2573 26.2018 36.937 25.9834C36.6167 25.7796 36.3474 25.4521 36.1291 25.0008C35.9107 24.535 35.8088 23.9236 35.8234 23.1666ZM39.9722 16.2227C40.2634 16.2227 40.4672 16.3319 40.5836 16.5503C40.7146 16.7541 40.7729 16.9506 40.7583 17.1398C40.9912 16.9651 41.3042 16.8778 41.6973 16.8778C42.0903 16.8632 42.396 16.936 42.6144 17.0962C42.5998 16.8487 42.6799 16.5794 42.8546 16.2882C43.0293 15.9825 43.2258 15.786 43.4441 15.6986C43.2549 15.6259 43.2039 15.5167 43.2913 15.3711C43.0147 15.4439 42.7891 15.3784 42.6144 15.1746C42.4542 14.9708 42.4324 14.7379 42.5489 14.4758C42.3742 14.5632 42.1558 14.6068 41.8938 14.6068C41.6463 14.6068 41.4134 14.5704 41.195 14.4977C40.9767 14.4103 40.8384 14.2866 40.7801 14.1264C40.8093 14.4176 40.7219 14.5923 40.5181 14.6505C40.5327 14.7961 40.4963 14.9344 40.4089 15.0654C40.3216 15.1964 40.176 15.2619 39.9722 15.2619C40.2488 15.2619 40.4308 15.342 40.5181 15.5021C40.62 15.6623 40.62 15.8224 40.5181 15.9825C40.4308 16.1426 40.2488 16.2227 39.9722 16.2227ZM51.582 24.8261C51.2035 24.8261 50.9196 24.7315 50.7304 24.5423C50.5411 24.353 50.4465 24.1346 50.4465 23.8872C50.4465 23.6251 50.5411 23.3995 50.7304 23.2103C50.9196 23.0064 51.2035 22.9045 51.582 22.9045C51.0725 22.9045 50.7304 22.8172 50.5557 22.6425C50.3956 22.4678 50.3956 22.2931 50.5557 22.1184C50.7304 21.9438 51.0725 21.8564 51.582 21.8564C51.1307 21.8564 50.825 21.7764 50.6649 21.6162C50.5193 21.4415 50.5193 21.2668 50.6649 21.0922C50.825 20.9175 51.1307 20.8301 51.582 20.8301C51.2181 20.8301 50.9415 20.7064 50.7522 20.4589C50.563 20.2114 50.4684 19.9276 50.4684 19.6073C50.4684 19.287 50.563 19.0032 50.7522 18.7557C50.9415 18.5082 51.2181 18.3845 51.582 18.3845C51.1453 18.3845 50.8177 18.3044 50.5994 18.1443C50.3956 17.9842 50.2937 17.8022 50.2937 17.5984C50.2937 17.3946 50.3956 17.2126 50.5994 17.0525C50.8177 16.8924 51.1453 16.8123 51.582 16.8123C51.0725 16.8123 50.7304 16.6958 50.5557 16.4629C50.381 16.23 50.381 15.9971 50.5557 15.7642C50.7304 15.5312 51.0725 15.4148 51.582 15.4148C51.2326 15.4148 50.9706 15.2838 50.7959 15.0217C50.6212 14.7451 50.5339 14.4322 50.5339 14.0828C50.5339 13.7188 50.6212 13.4059 50.7959 13.1438C50.9706 12.8672 51.2326 12.7289 51.582 12.7289C51.3636 12.5543 51.2617 12.3432 51.2763 12.0957C51.3054 11.8482 51.4 11.6299 51.5602 11.4406C51.7203 11.2368 51.9168 11.1058 52.1497 11.0476C52.3827 10.9893 52.6083 11.0476 52.8267 11.2223C52.8267 10.8874 52.914 10.6327 53.0887 10.458C53.2779 10.2833 53.4963 10.196 53.7438 10.196C53.9912 10.196 54.2023 10.2833 54.377 10.458C54.5663 10.6327 54.6609 10.8874 54.6609 11.2223C54.6609 10.9165 54.7628 10.6764 54.9666 10.5017C55.1704 10.3124 55.4251 10.1887 55.7308 10.1304C56.0366 10.0577 56.3423 10.0577 56.648 10.1304C56.9537 10.1887 57.2084 10.3124 57.4122 10.5017C57.616 10.6764 57.7179 10.9165 57.7179 11.2223C57.7616 10.8001 57.8926 10.4944 58.111 10.3051C58.3439 10.1013 58.5987 10.014 58.8752 10.0431C59.1518 10.0722 59.3848 10.2032 59.574 10.4362C59.7778 10.6691 59.8579 10.9966 59.8142 11.4188C59.9452 10.9529 60.1199 10.6691 60.3383 10.5672C60.5712 10.4653 60.7531 10.5162 60.8842 10.72C61.0297 10.9238 61.037 11.2586 60.906 11.7245C61.1244 11.3751 61.3791 11.1713 61.6703 11.1131C61.9614 11.0548 62.2307 11.0985 62.4782 11.2441C62.7257 11.3897 62.8858 11.608 62.9586 11.8992C63.0459 12.1758 62.9877 12.4887 62.7839 12.8381C63.075 12.6634 63.3662 12.6489 63.6573 12.7944C63.9485 12.9255 64.1887 13.1438 64.3779 13.4495C64.5672 13.7407 64.6545 14.0464 64.64 14.3666C64.64 14.6869 64.4944 14.9417 64.2032 15.1309C64.7128 15.029 65.0621 15.0436 65.2514 15.1746C65.4552 15.291 65.4843 15.4439 65.3387 15.6331C65.2077 15.8224 64.8947 15.968 64.3998 16.0699C64.7055 16.0699 64.9529 16.1718 65.1422 16.3756C65.346 16.5648 65.477 16.8123 65.5352 17.118C65.608 17.4091 65.6153 17.7076 65.5571 18.0133C65.4988 18.319 65.3751 18.5737 65.1859 18.7775C65.0112 18.9813 64.771 19.0905 64.4653 19.1051C64.902 19.1196 65.1931 19.2288 65.3387 19.4326C65.4843 19.6219 65.477 19.8111 65.3169 20.0004C65.1568 20.175 64.8583 20.2551 64.4216 20.2405C64.7273 20.3424 64.902 20.5608 64.9457 20.8956C65.0039 21.2304 64.9675 21.5871 64.8365 21.9656C64.7055 22.3295 64.5162 22.628 64.2687 22.8609C64.0213 23.0792 63.7374 23.1302 63.4171 23.0137C63.7811 23.3485 63.963 23.6397 63.963 23.8872C63.963 24.1346 63.8393 24.2657 63.5918 24.2802C63.3589 24.2948 63.0605 24.1274 62.6966 23.778C62.7985 23.9964 62.7693 24.2147 62.6092 24.4331C62.4636 24.6369 62.2453 24.8261 61.9541 25.0008C61.6775 25.1609 61.3791 25.2847 61.0588 25.372C60.7386 25.4594 60.4474 25.4812 60.1854 25.4375C59.9234 25.3939 59.7487 25.2701 59.6613 25.0663C59.6905 25.4011 59.6322 25.6632 59.4867 25.8524C59.3411 26.0271 59.1664 26.1217 58.9626 26.1363C58.7588 26.1654 58.5695 26.0999 58.3948 25.9398C58.2202 25.7796 58.1183 25.5322 58.0891 25.1973C58.0891 25.4885 57.98 25.7214 57.7616 25.8961C57.5432 26.0853 57.2667 26.2091 56.9318 26.2673C56.6116 26.3255 56.284 26.3255 55.9492 26.2673C55.6289 26.2091 55.3524 26.0853 55.1194 25.8961C54.9011 25.7214 54.7919 25.4885 54.7919 25.1973C54.7919 25.4739 54.6827 25.6923 54.4644 25.8524C54.246 26.0125 53.9767 26.1072 53.6564 26.1363C53.3362 26.18 53.0086 26.1581 52.6738 26.0708C52.3535 25.998 52.0842 25.8597 51.8659 25.6559C51.6621 25.4521 51.5674 25.1755 51.582 24.8261ZM55.7308 21.2887C55.9929 21.2887 56.1748 21.3979 56.2768 21.6162C56.3787 21.4124 56.4951 21.3687 56.6261 21.4852C56.7717 21.5871 56.8445 21.8419 56.8445 22.2495C56.8445 21.9146 56.9027 21.6817 57.0192 21.5507C57.1356 21.4197 57.2521 21.3979 57.3686 21.4852C57.4996 21.558 57.5796 21.7327 57.6088 22.0093C57.6379 21.7472 57.7689 21.5653 58.0018 21.4634C58.2347 21.3615 58.4531 21.3542 58.6569 21.4415C58.5987 21.2232 58.6205 20.9975 58.7224 20.7646C58.8243 20.5317 58.9699 20.3352 59.1591 20.175C59.3484 20.0004 59.5522 19.9203 59.7705 19.9348C59.5958 19.8038 59.4721 19.6219 59.3993 19.3889C59.3265 19.156 59.312 18.9158 59.3556 18.6684C59.3993 18.4209 59.4939 18.2098 59.6395 18.0351C59.7851 17.8604 59.9889 17.7731 60.2509 17.7731C59.9161 17.7876 59.6759 17.7003 59.5303 17.511C59.3848 17.3072 59.3338 17.0889 59.3775 16.856C59.4211 16.6085 59.5667 16.4265 59.8142 16.3101C59.4939 16.3392 59.2828 16.2518 59.1809 16.048C59.079 15.8442 59.1227 15.6404 59.312 15.4366C59.1518 15.4803 59.0281 15.4512 58.9408 15.3493C58.8534 15.2328 58.8388 15.0872 58.8971 14.9125C58.6787 15.0727 58.424 15.1018 58.1328 14.9999C57.8562 14.8834 57.7034 14.6796 57.6743 14.3885C57.616 14.6942 57.4705 14.8762 57.2375 14.9344C57.0192 14.9926 56.8372 14.9344 56.6916 14.7597C56.6916 14.9053 56.648 15.0144 56.5606 15.0872C56.4733 15.16 56.3641 15.1673 56.2331 15.1091C56.1166 15.1819 55.9492 15.2183 55.7308 15.2183C55.9929 15.2183 56.1894 15.3347 56.3204 15.5676C56.4514 15.8005 56.5169 16.0771 56.5169 16.3974C56.5169 16.7031 56.4514 16.9724 56.3204 17.2053C56.1894 17.4383 55.9929 17.5547 55.7308 17.5547C55.9929 17.5547 56.1821 17.6784 56.2986 17.9259C56.4296 18.1588 56.4951 18.4282 56.4951 18.7339C56.4951 19.0396 56.4296 19.3162 56.2986 19.5636C56.1821 19.7965 55.9929 19.913 55.7308 19.913C56.1093 19.913 56.3641 20.0295 56.4951 20.2624C56.6261 20.4807 56.6261 20.7064 56.4951 20.9393C56.3641 21.1722 56.1093 21.2887 55.7308 21.2887ZM67.7458 23.0792C67.3964 23.0792 67.1271 22.9628 66.9379 22.7299C66.7632 22.4824 66.6758 22.1985 66.6758 21.8783C66.6758 21.5434 66.7632 21.2596 66.9379 21.0266C67.1271 20.7792 67.3964 20.6554 67.7458 20.6554C67.3964 20.6554 67.1344 20.5608 66.9597 20.3716C66.7996 20.1823 66.7195 19.9712 66.7195 19.7383C66.7195 19.4908 66.7996 19.2798 66.9597 19.1051C67.1344 18.9158 67.3964 18.8212 67.7458 18.8212C67.2072 18.8212 66.8432 18.712 66.654 18.4937C66.4793 18.2753 66.4793 18.0569 66.654 17.8386C66.8432 17.6202 67.2072 17.511 67.7458 17.511C67.3819 17.511 67.1053 17.4237 66.916 17.249C66.7268 17.0743 66.6322 16.8705 66.6322 16.6376C66.6322 16.4047 66.7268 16.2009 66.916 16.0262C67.1053 15.8515 67.3819 15.7642 67.7458 15.7642C67.3382 15.7642 67.0325 15.6331 66.8287 15.3711C66.6394 15.1091 66.5448 14.8106 66.5448 14.4758C66.5448 14.1264 66.6394 13.8207 66.8287 13.5587C67.0325 13.2967 67.3382 13.1657 67.7458 13.1657C67.4692 13.0783 67.2945 12.9182 67.2217 12.6853C67.1635 12.4378 67.1708 12.1903 67.2436 11.9428C67.3309 11.6808 67.4692 11.477 67.6585 11.3314C67.8623 11.1713 68.1025 11.1349 68.379 11.2223C68.379 10.771 68.4591 10.4725 68.6192 10.327C68.7794 10.1814 68.9395 10.1814 69.0996 10.327C69.2598 10.4725 69.3398 10.771 69.3398 11.2223C69.3398 10.9602 69.449 10.7491 69.6674 10.589C69.8857 10.4289 70.155 10.327 70.4753 10.2833C70.8101 10.2251 71.1377 10.2251 71.4579 10.2833C71.7928 10.327 72.0693 10.4289 72.2877 10.589C72.5206 10.7491 72.6371 10.9602 72.6371 11.2223C72.6371 10.7564 72.7463 10.4507 72.9646 10.3051C73.1975 10.145 73.4305 10.145 73.6634 10.3051C73.8963 10.4507 74.0128 10.7564 74.0128 11.2223C74.0128 10.8292 74.1074 10.5381 74.2966 10.3488C74.4859 10.1596 74.6969 10.0649 74.9299 10.0649C75.1773 10.0649 75.3884 10.1596 75.5631 10.3488C75.7524 10.5381 75.847 10.8292 75.847 11.2223C75.847 10.9602 75.9489 10.7491 76.1527 10.589C76.3565 10.4289 76.604 10.327 76.8951 10.2833C77.2008 10.2251 77.5065 10.2251 77.8122 10.2833C78.1179 10.327 78.3727 10.4289 78.5765 10.589C78.7803 10.7491 78.8822 10.9602 78.8822 11.2223C79.3189 11.2659 79.6028 11.3605 79.7338 11.5061C79.8794 11.6371 79.8721 11.7682 79.712 11.8992C79.5518 12.0156 79.2534 12.052 78.8167 12.0084C79.1952 12.052 79.4718 12.1903 79.6465 12.4232C79.8211 12.6562 79.8939 12.9182 79.8648 13.2093C79.8357 13.4859 79.712 13.7261 79.4936 13.9299C79.2898 14.1192 78.9987 14.1992 78.6202 14.1701C78.6202 14.636 78.5401 14.9489 78.38 15.1091C78.2198 15.2546 78.0597 15.2546 77.8996 15.1091C77.7394 14.9489 77.6594 14.636 77.6594 14.1701C77.6594 14.6068 77.5429 14.9053 77.31 15.0654C77.0916 15.211 76.866 15.211 76.6331 15.0654C76.4002 14.9053 76.2837 14.6068 76.2837 14.1701C76.2837 14.3885 76.1745 14.5632 75.9562 14.6942C75.7378 14.8252 75.4685 14.9053 75.1482 14.9344C74.8425 14.9635 74.5368 14.9562 74.2311 14.9125C73.9254 14.8543 73.6925 14.7451 73.5324 14.585C73.5615 14.7597 73.5469 14.9271 73.4887 15.0872C73.4305 15.2474 73.3358 15.3857 73.2048 15.5021C73.3795 15.6186 73.5178 15.7642 73.6197 15.9388C73.7362 16.099 73.8017 16.2737 73.8162 16.4629C73.9327 16.2882 74.1074 16.1718 74.3403 16.1135C74.5732 16.0407 74.8134 16.0189 75.0609 16.048C75.3084 16.0771 75.5194 16.1645 75.6941 16.3101C75.8688 16.4411 75.9562 16.623 75.9562 16.856C75.9562 16.5357 76.0362 16.2955 76.1964 16.1354C76.371 15.9752 76.5676 15.8952 76.7859 15.8952C77.0043 15.8952 77.1935 15.9752 77.3537 16.1354C77.5284 16.2955 77.6157 16.5357 77.6157 16.856C77.7904 16.4047 77.9651 16.1281 78.1398 16.0262C78.3145 15.9243 78.4309 15.9752 78.4891 16.179C78.5619 16.3683 78.511 16.6885 78.3363 17.1398C78.7439 17.1689 79.035 17.3145 79.2097 17.5765C79.399 17.8386 79.479 18.1297 79.4499 18.45C79.4208 18.7703 79.2971 19.0468 79.0787 19.2798C78.8604 19.4981 78.5474 19.5927 78.1398 19.5636C78.1398 19.782 78.0306 19.9567 77.8122 20.0877C77.6084 20.2187 77.3464 20.3061 77.0261 20.3497C76.7204 20.3934 76.4074 20.3934 76.0872 20.3497C75.7815 20.3061 75.5194 20.2187 75.3011 20.0877C75.0973 19.9567 74.9954 19.782 74.9954 19.5636C74.9954 19.8548 74.8862 20.0659 74.6678 20.1969C74.4495 20.3279 74.2093 20.3788 73.9472 20.3497C73.6998 20.3206 73.5105 20.2042 73.3795 20.0004C73.3649 20.175 73.3067 20.3279 73.2048 20.4589C73.1175 20.5899 73.0083 20.6918 72.8773 20.7646C73.0374 20.9102 73.1102 21.0849 73.0956 21.2887C73.2703 21.3324 73.4232 21.4343 73.5542 21.5944C73.6852 21.7545 73.7507 21.9729 73.7507 22.2495C73.7507 21.9874 73.889 21.7909 74.1656 21.6599C74.4568 21.5143 74.7843 21.4415 75.1482 21.4415C75.5122 21.4415 75.8324 21.5143 76.109 21.6599C76.4002 21.7909 76.5457 21.9874 76.5457 22.2495C76.5457 21.7982 76.6549 21.4998 76.8733 21.3542C77.0916 21.2086 77.3027 21.2086 77.5065 21.3542C77.7249 21.4998 77.8341 21.7982 77.8341 22.2495C78.0379 21.9583 78.2708 21.8273 78.5328 21.8564C78.7949 21.8855 78.9841 22.0165 79.1006 22.2495C79.2316 22.4824 79.1952 22.7444 78.9914 23.0356C79.2971 23.152 79.4863 23.3485 79.5591 23.6251C79.6319 23.9017 79.6173 24.1856 79.5154 24.4767C79.4135 24.7533 79.2389 24.9717 78.9914 25.1318C78.7585 25.292 78.4891 25.3138 78.1834 25.1973C78.1834 25.5904 78.0961 25.8815 77.9214 26.0708C77.7613 26.2746 77.572 26.3765 77.3537 26.3765C77.1353 26.3765 76.9461 26.2746 76.7859 26.0708C76.6258 25.8815 76.5457 25.5904 76.5457 25.1973C76.5457 25.6049 76.422 25.9034 76.1745 26.0926C75.9416 26.2964 75.6723 26.3983 75.3666 26.3983C75.0609 26.3983 74.7843 26.2964 74.5368 26.0926C74.3039 25.9034 74.1874 25.6049 74.1874 25.1973C74.1874 25.5613 74.0928 25.8306 73.9036 26.0053C73.7143 26.1945 73.4887 26.2891 73.2267 26.2891C72.9792 26.2891 72.7608 26.1945 72.5716 26.0053C72.3823 25.8306 72.2877 25.5613 72.2877 25.1973C72.2877 25.6195 72.164 25.9325 71.9165 26.1363C71.6836 26.3546 71.4143 26.4638 71.1086 26.4638C70.8029 26.4638 70.5263 26.3546 70.2788 26.1363C70.0459 25.9325 69.9294 25.6195 69.9294 25.1973C69.9294 25.5613 69.8129 25.816 69.58 25.9616C69.3617 26.1217 69.1069 26.1363 68.8158 26.0053C68.5246 25.8888 68.2699 25.5977 68.0515 25.1318C67.8331 24.6514 67.7312 23.9672 67.7458 23.0792ZM82.3103 22.5552C81.7862 22.5552 81.4368 22.4824 81.2622 22.3368C81.0875 22.1912 81.0875 22.0529 81.2622 21.9219C81.4368 21.7764 81.7862 21.7036 82.3103 21.7036C81.9027 21.7036 81.597 21.6089 81.3932 21.4197C81.1894 21.2304 81.0875 21.0194 81.0875 20.7864C81.0875 20.539 81.1894 20.3279 81.3932 20.1532C81.597 19.964 81.9027 19.8693 82.3103 19.8693C81.9172 19.8693 81.6261 19.7893 81.4368 19.6291C81.2476 19.469 81.153 19.287 81.153 19.0832C81.153 18.8794 81.2476 18.6975 81.4368 18.5373C81.6261 18.3772 81.9172 18.2971 82.3103 18.2971C81.9609 18.2971 81.6916 18.188 81.5024 17.9696C81.3277 17.7512 81.2403 17.4965 81.2403 17.2053C81.2403 16.9142 81.3277 16.6594 81.5024 16.4411C81.6916 16.2227 81.9609 16.1135 82.3103 16.1135C81.8008 16.1135 81.4587 16.0116 81.284 15.8078C81.1093 15.604 81.1093 15.4002 81.284 15.1964C81.4587 14.9926 81.8008 14.8907 82.3103 14.8907C81.8736 14.8907 81.546 14.8034 81.3277 14.6287C81.1239 14.4394 81.022 14.2284 81.022 13.9954C81.022 13.748 81.1239 13.5369 81.3277 13.3622C81.546 13.1729 81.8736 13.0783 82.3103 13.0783C82.0628 12.9619 81.9172 12.7872 81.8736 12.5543C81.8299 12.3068 81.859 12.0666 81.9609 11.8337C82.0774 11.5862 82.2375 11.3969 82.4413 11.2659C82.6451 11.1349 82.8707 11.1204 83.1182 11.2223C83.1182 10.8729 83.2274 10.6181 83.4458 10.458C83.6641 10.2833 83.9189 10.196 84.21 10.196C84.5012 10.196 84.7559 10.2833 84.9743 10.458C85.1927 10.6181 85.3018 10.8729 85.3018 11.2223C85.462 11.0039 85.6439 10.8874 85.8477 10.8729C86.0515 10.8438 86.2335 10.8874 86.3936 11.0039C86.5538 11.1204 86.6557 11.2805 86.6993 11.4843C86.7576 11.6881 86.7066 11.8992 86.5465 12.1175C86.925 12.1175 87.2088 12.2485 87.3981 12.5106C87.6019 12.7581 87.7038 13.0492 87.7038 13.384C87.7038 13.7043 87.6019 13.9954 87.3981 14.2575C87.2088 14.5049 86.925 14.6287 86.5465 14.6287C86.9104 14.6287 87.1797 14.7524 87.3544 14.9999C87.5437 15.2474 87.6383 15.5312 87.6383 15.8515C87.6383 16.1718 87.5437 16.4556 87.3544 16.7031C87.1797 16.9506 86.9104 17.0743 86.5465 17.0743C87.0414 17.0743 87.369 17.1471 87.5291 17.2927C87.6892 17.4383 87.6892 17.5838 87.5291 17.7294C87.369 17.875 87.0414 17.9478 86.5465 17.9478C87.0414 17.9478 87.3835 18.0424 87.5728 18.2316C87.762 18.4209 87.7911 18.6247 87.6601 18.843C87.5437 19.0468 87.2744 19.1779 86.8522 19.2361C87.2452 19.2506 87.5437 19.4326 87.7475 19.782C87.9658 20.1314 88.0605 20.488 88.0313 20.852C88.3225 20.7792 88.6209 20.7719 88.9266 20.8301C89.2323 20.8884 89.4871 21.0194 89.6909 21.2232C89.9092 21.427 90.0184 21.6963 90.0184 22.0311C90.0184 21.7108 90.1203 21.4561 90.3241 21.2668C90.5425 21.0776 90.7972 20.9539 91.0884 20.8956C91.3941 20.8374 91.6998 20.8374 92.0055 20.8956C92.3112 20.9539 92.566 21.0776 92.7698 21.2668C92.9736 21.4561 93.0755 21.7108 93.0755 22.0311C93.454 22.002 93.7451 22.0602 93.9489 22.2058C94.1527 22.3514 94.2619 22.5333 94.2765 22.7517C94.291 22.9555 94.2037 23.1447 94.0144 23.3194C93.8397 23.4941 93.5631 23.5887 93.1846 23.6033C93.4176 23.8217 93.5195 24.0619 93.4904 24.3239C93.4758 24.5859 93.3739 24.8261 93.1846 25.0445C92.9954 25.2483 92.7698 25.3793 92.5077 25.4375C92.2457 25.4812 91.9982 25.4011 91.7653 25.1973C91.7653 25.5467 91.6416 25.8015 91.3941 25.9616C91.1466 26.1363 90.8627 26.2236 90.5425 26.2236C90.2222 26.2236 89.9384 26.1363 89.6909 25.9616C89.4434 25.8015 89.3197 25.5467 89.3197 25.1973C89.3197 25.5613 89.1814 25.8379 88.9048 26.0271C88.6427 26.2164 88.3298 26.311 87.9658 26.311C87.6019 26.311 87.2816 26.2164 87.005 26.0271C86.743 25.8379 86.612 25.5613 86.612 25.1973C86.612 25.5613 86.481 25.8379 86.2189 26.0271C85.9569 26.2164 85.6512 26.311 85.3018 26.311C84.9525 26.311 84.6467 26.2164 84.3847 26.0271C84.1227 25.8379 83.9917 25.5613 83.9917 25.1973C83.9917 25.6341 83.9043 25.9398 83.7296 26.1144C83.5549 26.3037 83.3511 26.3183 83.1182 26.1581C82.8999 25.998 82.7033 25.6341 82.5286 25.0663C82.3685 24.484 82.2957 23.647 82.3103 22.5552Z" fill="#0A0B0A"/>
</svg>
