<svg width="30" height="30" viewBox="0 0 30 30" fill="none" xmlns="http://www.w3.org/2000/svg">
<rect x="0.5" y="0.5" width="29" height="29" rx="14.5" stroke="#0F6100"/>
<path d="M15 24C14.905 24.0001 14.811 23.9796 14.7232 23.9396C14.6355 23.8996 14.5558 23.841 14.4888 23.767L7.58581 16.1774C5.4714 13.8527 5.4714 10.0698 7.58581 7.74501C9.61634 5.51089 12.8711 5.42105 15 7.48105C17.1274 5.42343 20.3822 5.51009 22.4142 7.74501C24.5286 10.0698 24.5286 13.8534 22.4142 16.1774L15.5112 23.767C15.4442 23.841 15.3645 23.8996 15.2768 23.9396C15.189 23.9796 15.095 24.0001 15 24ZM11.4213 7.58997C10.8989 7.58896 10.3815 7.70138 9.89883 7.92077C9.41611 8.14016 8.97754 8.46221 8.60831 8.86843C7.86336 9.689 7.44498 10.801 7.44498 11.9604C7.44498 13.1198 7.86336 14.2318 8.60831 15.0524L15 22.0799L21.3917 15.0524C22.1366 14.2318 22.555 13.1198 22.555 11.9604C22.555 10.801 22.1366 9.689 21.3917 8.86843C20.6454 8.04938 19.634 7.58937 18.5795 7.58937C17.525 7.58937 16.5136 8.04938 15.7672 8.86843L15.5112 9.14988C15.4442 9.22377 15.3645 9.2824 15.2767 9.3224C15.189 9.3624 15.095 9.38299 15 9.38299C14.905 9.38299 14.811 9.3624 14.7233 9.3224C14.6355 9.2824 14.5558 9.22377 14.4888 9.14988L14.2328 8.86843C13.8638 8.46222 13.4255 8.14017 12.943 7.92077C12.4605 7.70138 11.9434 7.58896 11.4213 7.58997Z" fill="#006400"/>
</svg>
