<svg width="64" height="64" viewBox="0 0 64 64" fill="none" xmlns="http://www.w3.org/2000/svg">
<path d="M63.5 32.0001C63.5 42.4001 55.0999 50.9001 44.5999 50.9001C34.1999 50.9001 25.7 42.4001 25.7 32.0001C25.7 21.6001 34.1 13.1001 44.5 13.1001C55.1 13.1001 63.5 21.6001 63.5 32.0001Z" fill="#FFB600"/>
<path d="M44.5999 13.1001C54.9999 13.1001 63.5 21.6001 63.5 32.0001C63.5 42.4001 55.0999 50.9001 44.5999 50.9001C34.1999 50.9001 25.7 42.4001 25.7 32.0001" fill="#F7981D"/>
<path d="M44.6001 13.1001C55.0001 13.1001 63.5001 21.6001 63.5001 32.0001C63.5001 42.4001 55.1001 50.9001 44.6001 50.9001" fill="#FF8500"/>
<path d="M19.2 13.1001C8.9 13.2001 0.5 21.6001 0.5 32.0001C0.5 42.4001 8.9 50.9001 19.4 50.9001C24.3 50.9001 28.7 49.0001 32.1 46.0001C32.8 45.4001 33.4 44.7001 34 44.0001H30.1C29.6 43.4001 29.1 42.7001 28.7 42.1001H35.4C35.8 41.5001 36.2 40.8001 36.5 40.1001H27.6C27.3 39.5001 27 38.8001 26.8 38.1001H37.2C37.8 36.2001 38.2 34.2001 38.2 32.1001C38.2 30.7001 38 29.4001 37.8 28.1001H26.2C26.3 27.4001 26.5 26.8001 26.7 26.1001H37.1C36.9 25.4001 36.6 24.7001 36.3 24.1001H27.5C27.8 23.4001 28.2 22.8001 28.6 22.1001H35.3C34.9 21.4001 34.4 20.7001 33.8 20.1001H30.1C30.7 19.4001 31.3 18.8001 32 18.2001C28.7 15.1001 24.2 13.3001 19.3 13.3001C19.3 13.1001 19.3 13.1001 19.2 13.1001Z" fill="#FF5050"/>
<path d="M0.5 32.0003C0.5 42.4003 8.9 50.9003 19.4 50.9003C24.3 50.9003 28.7 49.0003 32.1 46.0003C32.8 45.4003 33.4 44.7003 34 44.0003H30.1C29.6 43.4003 29.1 42.7003 28.7 42.1003H35.4C35.8 41.5003 36.2 40.8003 36.5 40.1003H27.6C27.3 39.5003 27 38.8003 26.8 38.1003H37.2C37.8 36.2003 38.2 34.2003 38.2 32.1003C38.2 30.7003 38 29.4003 37.8 28.1003H26.2C26.3 27.4003 26.5 26.8003 26.7 26.1003H37.1C36.9 25.4003 36.6 24.7003 36.3 24.1003H27.5C27.8 23.4003 28.2 22.8003 28.6 22.1003H35.3C34.9 21.4003 34.4 20.7003 33.8 20.1003H30.1C30.7 19.4003 31.3 18.8003 32 18.2003C28.7 15.1003 24.2 13.3003 19.3 13.3003H19.2" fill="#E52836"/>
<path d="M19.4 50.9003C24.3 50.9003 28.6999 49.0003 32.0999 46.0003C32.7999 45.4003 33.4 44.7003 34 44.0003H30.1C29.6 43.4003 29.1 42.7003 28.7 42.1003H35.4C35.8 41.5003 36.2 40.8003 36.5 40.1003H27.6C27.3 39.5003 26.9999 38.8003 26.7999 38.1003H37.2C37.8 36.2003 38.2 34.2003 38.2 32.1003C38.2 30.7003 38 29.4003 37.7999 28.1003H26.2C26.3 27.4003 26.5 26.8003 26.7 26.1003H37.0999C36.8999 25.4003 36.5999 24.7003 36.2999 24.1003H27.5C27.8 23.4003 28.2 22.8003 28.6 22.1003H35.2999C34.9 21.4003 34.4 20.7003 33.7999 20.1003H30.1C30.7 19.4003 31.3 18.8003 32 18.2003C28.7 15.1003 24.1999 13.3003 19.2999 13.3003H19.2" fill="#CB2026"/>
<path d="M26.1 36.8L26.4 35.1C26.3 35.1 26.1 35.2 25.9 35.2C25.1999 35.2 25.1 34.8 25.2 34.6L25.7999 31.1H26.9L27.2 29.2H26.2L26.4 28H24.4C24.4 28 23.2 34.6 23.2 35.4C23.2 36.6 23.8999 37.1 24.7999 37.1C25.3999 37.1 25.9 36.9 26.1 36.8Z" fill="white"/>
<path d="M26.8 33.6001C26.8 36.4001 28.7 37.1001 30.3 37.1001C31.8 37.1001 32.4001 36.8001 32.4001 36.8001L32.8 34.9001C32.8 34.9001 31.7001 35.4001 30.7001 35.4001C28.5001 35.4001 28.9 33.8001 28.9 33.8001H33C33 33.8001 33.3 32.5001 33.3 32.0001C33.3 30.7001 32.6 29.1001 30.4 29.1001C28.3 28.9001 26.8 31.1001 26.8 33.6001ZM30.3 30.7001C31.4 30.7001 31.2001 32.0001 31.2001 32.1001H29C29 32.0001 29.2 30.7001 30.3 30.7001Z" fill="white"/>
<path d="M43 36.8001L43.4 34.6001C43.4 34.6001 42.4 35.1001 41.7 35.1001C40.3 35.1001 39.7 34.0001 39.7 32.8001C39.7 30.4001 40.9 29.1001 42.3 29.1001C43.3 29.1001 44.1 29.7001 44.1 29.7001L44.4 27.6001C44.4 27.6001 43.2 27.1001 42.1 27.1001C39.8 27.1001 37.5 29.1001 37.5 32.9001C37.5 35.4001 38.7 37.1001 41.1 37.1001C41.9 37.1001 43 36.8001 43 36.8001Z" fill="white"/>
<path d="M15.1 28.8999C13.7 28.8999 12.7 29.2999 12.7 29.2999L12.4 30.9999C12.4 30.9999 13.3 30.5999 14.6 30.5999C15.3 30.5999 15.9 30.6999 15.9 31.2999C15.9 31.6999 15.8 31.7999 15.8 31.7999C15.8 31.7999 15.2 31.7999 14.9 31.7999C13.2 31.7999 11.3 32.4999 11.3 34.7999C11.3 36.5999 12.5 36.9999 13.2 36.9999C14.6 36.9999 15.2 36.0999 15.3 36.0999L15.2 36.8999H17L17.8 31.3999C17.8 28.9999 15.8 28.8999 15.1 28.8999ZM15.5 33.3999C15.5 33.6999 15.3 35.2999 14.1 35.2999C13.5 35.2999 13.3 34.7999 13.3 34.4999C13.3 33.9999 13.6 33.2999 15.1 33.2999C15.4 33.3999 15.5 33.3999 15.5 33.3999Z" fill="white"/>
<path d="M19.7001 37.0003C20.2001 37.0003 22.7001 37.1003 22.7001 34.4003C22.7001 31.9003 20.3001 32.4003 20.3001 31.4003C20.3001 30.9003 20.7001 30.7003 21.4001 30.7003C21.7001 30.7003 22.8001 30.8003 22.8001 30.8003L23.1001 29.0003C23.1001 29.0003 22.4001 28.8003 21.2001 28.8003C19.7001 28.8003 18.2001 29.4003 18.2001 31.4003C18.2001 33.7003 20.7001 33.5003 20.7001 34.4003C20.7001 35.0003 20.0001 35.1003 19.5001 35.1003C18.6001 35.1003 17.7001 34.8003 17.7001 34.8003L17.4001 36.6003C17.5001 36.8003 18.0001 37.0003 19.7001 37.0003Z" fill="white"/>
<path d="M59.6001 27.3003L59.2001 30.0003C59.2001 30.0003 58.4001 29.0003 57.3001 29.0003C55.5001 29.0003 53.9001 31.2003 53.9001 33.8003C53.9001 35.4003 54.7001 37.1003 56.4001 37.1003C57.6001 37.1003 58.3001 36.3003 58.3001 36.3003L58.2001 37.0003H60.2001L61.7001 27.4003L59.6001 27.3003ZM58.7001 32.6003C58.7001 33.7003 58.2001 35.1003 57.1001 35.1003C56.4001 35.1003 56.0001 34.5003 56.0001 33.5003C56.0001 31.9003 56.7001 30.9003 57.6001 30.9003C58.3001 30.9003 58.7001 31.4003 58.7001 32.6003Z" fill="white"/>
<path d="M4.20005 36.9003L5.40005 29.7003L5.60005 36.9003H7.00005L9.60005 29.7003L8.50005 36.9003H10.6L12.2 27.3003H8.90005L6.90005 33.2003L6.80005 27.3003H3.90005L2.30005 36.9003H4.20005Z" fill="white"/>
<path d="M35.2 36.9001C35.8 33.6001 35.9 30.9001 37.3 31.4001C37.5 30.1001 37.8 29.6001 38 29.1001C38 29.1001 37.9 29.1001 37.6 29.1001C36.7 29.1001 36 30.3001 36 30.3001L36.2 29.2001H34.3L33 37.0001H35.2V36.9001Z" fill="white"/>
<path d="M47.6 28.8999C46.2 28.8999 45.2001 29.2999 45.2001 29.2999L44.9001 30.9999C44.9001 30.9999 45.8 30.5999 47.1 30.5999C47.8 30.5999 48.4001 30.6999 48.4001 31.2999C48.4001 31.6999 48.3 31.7999 48.3 31.7999C48.3 31.7999 47.7001 31.7999 47.4001 31.7999C45.7001 31.7999 43.8 32.4999 43.8 34.7999C43.8 36.5999 45.0001 36.9999 45.7001 36.9999C47.1001 36.9999 47.7 36.0999 47.8 36.0999L47.7001 36.8999H49.5L50.3 31.3999C50.4 28.9999 48.3 28.8999 47.6 28.8999ZM48.1 33.3999C48.1 33.6999 47.9001 35.2999 46.7001 35.2999C46.1001 35.2999 45.9001 34.7999 45.9001 34.4999C45.9001 33.9999 46.2001 33.2999 47.7001 33.2999C48.0001 33.3999 48 33.3999 48.1 33.3999Z" fill="white"/>
<path d="M52 36.9001C52.6 33.6001 52.7 30.9001 54.1 31.4001C54.3 30.1001 54.6 29.6001 54.8 29.1001C54.8 29.1001 54.7001 29.1001 54.4001 29.1001C53.5001 29.1001 52.8 30.3001 52.8 30.3001L53 29.2001H51.1L49.8 37.0001H52V36.9001Z" fill="white"/>
<path d="M23 35.4C23 36.6 23.7 37.1 24.6 37.1C25.3 37.1 25.9 36.9 26.1 36.8L26.4 35.1C26.3 35.1 26.1 35.2 25.9 35.2C25.2 35.2 25.1 34.8 25.2 34.6L25.8 31.1H26.9L27.2 29.2H26.2L26.4 28" fill="#DCE5E5"/>
<path d="M27.8 33.6001C27.8 36.4001 28.7 37.1001 30.3 37.1001C31.8 37.1001 32.4001 36.8001 32.4001 36.8001L32.8 34.9001C32.8 34.9001 31.7001 35.4001 30.7001 35.4001C28.5001 35.4001 28.9 33.8001 28.9 33.8001H33C33 33.8001 33.3 32.5001 33.3 32.0001C33.3 30.7001 32.6 29.1001 30.4 29.1001C28.3 28.9001 27.8 31.1001 27.8 33.6001ZM30.3 30.7001C31.4 30.7001 31.6 32.0001 31.6 32.1001H29C29 32.0001 29.2 30.7001 30.3 30.7001Z" fill="#DCE5E5"/>
<path d="M43 36.8001L43.4 34.6001C43.4 34.6001 42.4 35.1001 41.7 35.1001C40.3 35.1001 39.7 34.0001 39.7 32.8001C39.7 30.4001 40.9 29.1001 42.3 29.1001C43.3 29.1001 44.1 29.7001 44.1 29.7001L44.4 27.6001C44.4 27.6001 43.2 27.1001 42.1 27.1001C39.8 27.1001 38.5 29.1001 38.5 32.9001C38.5 35.4001 38.7 37.1001 41.1 37.1001C41.9 37.1001 43 36.8001 43 36.8001Z" fill="#DCE5E5"/>
<path d="M12.4 31.1001C12.4 31.1001 13.3 30.7001 14.6 30.7001C15.3 30.7001 15.9 30.8001 15.9 31.4001C15.9 31.8001 15.8 31.9001 15.8 31.9001C15.8 31.9001 15.2 31.9001 14.9 31.9001C13.2 31.9001 11.3 32.6001 11.3 34.9001C11.3 36.7001 12.5 37.1001 13.2 37.1001C14.6 37.1001 15.2 36.2001 15.3 36.2001L15.2 37.0001H17L17.8 31.5001C17.8 29.2001 15.8 29.1001 15 29.1001M16.5 33.4001C16.5 33.7001 15.3 35.3001 14.1 35.3001C13.5 35.3001 13.3 34.8001 13.3 34.5001C13.3 34.0001 13.6 33.3001 15.1 33.3001C15.4 33.4001 16.5 33.4001 16.5 33.4001Z" fill="#DCE5E5"/>
<path d="M17.5 36.8003C17.5 36.8003 18.1 37.0003 19.8 37.0003C20.3 37.0003 22.8 37.1003 22.8 34.4003C22.8 31.9003 20.4 32.4003 20.4 31.4003C20.4 30.9003 20.8 30.7003 21.5 30.7003C21.8 30.7003 22.9 30.8003 22.9 30.8003L23.2 29.0003C23.2 29.0003 22.5 28.8003 21.3 28.8003C19.8 28.8003 19.3 29.4003 19.3 31.4003C19.3 33.7003 20.8 33.5003 20.8 34.4003C20.8 35.0003 20.1 35.1003 19.6 35.1003" fill="#DCE5E5"/>
<path d="M59.2001 29.9999C59.2001 29.9999 58.4001 28.9999 57.3001 28.9999C55.5001 28.9999 54.9001 31.1999 54.9001 33.7999C54.9001 35.3999 54.7001 37.0999 56.4001 37.0999C57.6001 37.0999 58.3001 36.2999 58.3001 36.2999L58.2001 36.9999H60.2001L61.7001 27.3999M59.1001 32.5999C59.1001 33.6999 58.2001 35.0999 57.1001 35.0999C56.4001 35.0999 56.0001 34.4999 56.0001 33.4999C56.0001 31.8999 56.7001 30.8999 57.6001 30.8999C58.3001 30.8999 59.1001 31.3999 59.1001 32.5999Z" fill="#DCE5E5"/>
<path d="M4.20005 36.9003L5.40005 29.7003L5.60005 36.9003H7.00005L9.60005 29.7003L8.50005 36.9003H10.6L12.2 27.3003H9.70005L6.90005 33.2003L6.80005 27.3003H5.70005L2.30005 36.9003H4.20005Z" fill="#DCE5E5"/>
<path d="M33.1001 36.9001H35.2001C35.8001 33.6001 35.9001 30.9001 37.3001 31.4001C37.5001 30.1001 37.8001 29.6001 38.0001 29.1001C38.0001 29.1001 37.9001 29.1001 37.6001 29.1001C36.7001 29.1001 36.0001 30.3001 36.0001 30.3001L36.2001 29.2001" fill="#DCE5E5"/>
<path d="M44.9001 31.1001C44.9001 31.1001 45.8 30.7001 47.1 30.7001C47.8 30.7001 48.4001 30.8001 48.4001 31.4001C48.4001 31.8001 48.3 31.9001 48.3 31.9001C48.3 31.9001 47.7001 31.9001 47.4001 31.9001C45.7001 31.9001 43.8 32.6001 43.8 34.9001C43.8 36.7001 45.0001 37.1001 45.7001 37.1001C47.1001 37.1001 47.7 36.2001 47.8 36.2001L47.7001 37.0001H49.5L50.3 31.5001C50.3 29.2001 48.3 29.1001 47.5 29.1001M49 33.4001C49 33.7001 47.8 35.3001 46.6 35.3001C46 35.3001 45.8 34.8001 45.8 34.5001C45.8 34.0001 46.1 33.3001 47.6 33.3001C48 33.4001 49 33.4001 49 33.4001Z" fill="#DCE5E5"/>
<path d="M49.9001 36.9001H52.0001C52.6001 33.6001 52.7001 30.9001 54.1001 31.4001C54.3001 30.1001 54.6001 29.6001 54.8001 29.1001C54.8001 29.1001 54.7001 29.1001 54.4001 29.1001C53.5001 29.1001 52.8001 30.3001 52.8001 30.3001L53.0001 29.2001" fill="#DCE5E5"/>
</svg>
