<svg width="24" height="24" viewBox="0 0 24 24" fill="none" xmlns="http://www.w3.org/2000/svg">
<path d="M11.1081 10.274C14.091 10.2441 16.3416 9.23918 17.2903 6.9007C18.2435 4.62943 18.0008 2.53 15.3487 1.65955C13.6322 1.09548 13.0673 1.2337 6.34665 1.2337C5.90978 1.2337 5.5303 1.50642 5.46404 1.86502L2.87823 15.7579C2.83411 16.0306 3.07678 16.2772 3.41211 16.2772H6.70404C6.79231 16.2772 6.82316 16.2511 6.83643 16.1838C7.01732 15.2387 7.63077 11.8952 7.78517 11.178C8.04119 10.0125 9.19293 10.3002 11.1081 10.274Z" fill="#002D8A"/>
<path d="M18.6274 5.80231C18.548 5.75373 18.5171 5.73502 18.495 5.85081C18.4068 6.27674 18.27 6.69135 18.1067 7.10605C16.346 11.3572 11.4654 10.9874 9.08253 10.9874C8.81333 10.9874 8.63683 11.1107 8.60151 11.3385C7.60426 16.5834 7.40566 17.6779 7.40566 17.6779C7.3615 17.9431 7.5601 18.1598 7.87342 18.1598H10.6755C11.055 18.1598 11.3683 17.9244 11.4434 17.6033C11.4742 17.4015 11.3949 17.8311 12.0788 14.1926C12.2818 13.3708 12.7098 13.4567 13.3717 13.4567C16.5049 13.4567 18.9494 12.3808 19.6776 9.26156C19.9645 7.96151 19.8807 6.59424 18.6274 5.80231Z" fill="#019BE1"/>
</svg>
