<svg width="64" height="64" viewBox="0 0 64 64" fill="none" xmlns="http://www.w3.org/2000/svg">
<path fill-rule="evenodd" clip-rule="evenodd" d="M49.6 27.0001C48.1 27.0001 46.9 27.4001 45.9 27.6001L45.6 29.9001C46.1 29.7001 47.5 29.3001 48.7 29.2001C49.9 29.2001 50.6 29.4001 50.4 30.5001C46.8 30.5001 44.4 31.2001 43.9 33.6001C43.2 37.6001 47.6 37.7001 49.3 35.9001L49.1 37.0001H52.3L53.7 30.5001C54.2 27.8001 51.8 26.9001 49.6 27.0001ZM49.8 33.7001C49.6 34.5001 48.9 34.8001 48.1 34.9001C47.4 34.9001 46.8 34.5001 47.2 33.7001C47.6 33.1001 48.5 33.1001 49.2 33.1001C49.4 33.1001 49.7 33.1001 50 33.1001C49.9 33.0001 49.8 33.4001 49.8 33.7001Z" fill="#32A6CE"/>
<path fill-rule="evenodd" clip-rule="evenodd" d="M45.6 29.9001C46.1 29.7001 47.5 29.3001 48.7 29.2001C49.9 29.2001 50.6 29.4001 50.4 30.5001C46.8 30.5001 44.4 31.2001 43.9 33.6001C43.2 37.6001 47.6 37.7001 49.3 35.9001L49.1 37.0001H52.3L53.7 30.5001C54.3 27.8001 51.8 27.1001 49.6 27.1001M49.8 33.7001C49.6 34.5001 48.9 34.8001 48.1 34.9001C47.4 34.9001 46.8 34.5001 47.2 33.7001C47.6 33.1001 48.5 33.1001 49.2 33.1001C49.4 33.1001 49.7 33.1001 50 33.1001C49.9 33.0001 49.8 33.4001 49.8 33.7001Z" fill="#1A80AD"/>
<path fill-rule="evenodd" clip-rule="evenodd" d="M56.3998 24L53.7998 37H56.9998L59.6998 24H56.3998Z" fill="#32A6CE"/>
<path fill-rule="evenodd" clip-rule="evenodd" d="M58.6998 24L53.7998 37H56.9998L59.6998 24H56.3998H58.6998Z" fill="#1A80AD"/>
<path fill-rule="evenodd" clip-rule="evenodd" d="M41.5 24H35.6L33 37H36.5L37.4 33H39.9C42.3 33 44.3 31.6 44.8 29.1C45.3 26.2 43.2 24 41.5 24ZM41.4 28.5C41.2 29.4 40.3 30 39.4 30H37.8L38.5 27H40.2C41.1 27 41.6 27.6 41.4 28.5Z" fill="#32A6CE"/>
<path fill-rule="evenodd" clip-rule="evenodd" d="M41.4999 24H37.4999L32.8999 37H36.3999L37.2999 33H39.7999C42.1999 33 44.1999 31.6 44.6999 29.1C45.2999 26.2 43.1999 24 41.4999 24ZM41.3999 28.5C41.1999 29.4 40.2999 30 39.3999 30H37.7999L38.4999 27H40.1999C41.0999 27 41.5999 27.6 41.3999 28.5Z" fill="#1A80AD"/>
<path fill-rule="evenodd" clip-rule="evenodd" d="M18.3998 27.0001C16.8998 27.0001 15.6998 27.4001 14.7998 27.6001L14.4998 29.9001C14.8998 29.7001 16.3998 29.3001 17.5998 29.2001C18.7998 29.2001 19.4998 29.4001 19.2998 30.5001C15.7998 30.5001 13.3998 31.2001 12.8998 33.6001C12.1998 37.6001 16.4998 37.7001 18.1998 35.9001L17.9998 37.0001H21.1998L22.5998 30.5001C23.0998 27.8001 20.5998 26.9001 18.3998 27.0001ZM18.6998 33.7001C18.4998 34.5001 17.7998 34.8001 16.9998 34.9001C16.2998 34.9001 15.6998 34.5001 16.1998 33.7001C16.5998 33.1001 17.4998 33.1001 18.0998 33.1001C18.3998 33.1001 18.5998 33.1001 18.8998 33.1001C18.7998 33.0001 18.6998 33.4001 18.6998 33.7001Z" fill="#21789E"/>
<path fill-rule="evenodd" clip-rule="evenodd" d="M14.5999 29.9001C14.9999 29.7001 16.4999 29.3001 17.6999 29.2001C18.8999 29.2001 19.5999 29.4001 19.3999 30.5001C15.8999 30.5001 13.4999 31.2001 12.9999 33.6001C12.2999 37.6001 16.5999 37.7001 18.2999 35.9001L17.9999 37.0001H21.1999L22.5999 30.5001C23.1999 27.8001 20.6999 27.1001 18.4999 27.1001M18.6999 33.7001C18.4999 34.5001 17.7999 34.8001 16.9999 34.9001C16.2999 34.9001 15.6999 34.5001 16.1999 33.7001C16.5999 33.1001 17.4999 33.1001 18.0999 33.1001C18.3999 33.1001 18.5999 33.1001 18.8999 33.1001C18.7999 33.0001 18.6999 33.4001 18.6999 33.7001Z" fill="#1A5B80"/>
<path fill-rule="evenodd" clip-rule="evenodd" d="M23.8999 27H27.0999L27.5999 32.6L30.7999 27H34.0999L26.4999 41H22.8999L25.1999 36.8L23.8999 27Z" fill="#21789E"/>
<path fill-rule="evenodd" clip-rule="evenodd" d="M27.0999 27.2L27.5999 32.7L30.7999 27H34.0999L26.4999 41H22.8999L25.1999 36.9" fill="#1A5B80"/>
<path fill-rule="evenodd" clip-rule="evenodd" d="M10.4999 24H4.4999L1.8999 37H5.3999L6.2999 33H8.7999C11.1999 33 13.1999 31.6 13.6999 29.1C14.2999 26.2 12.1999 24 10.4999 24ZM10.3999 28.5C10.1999 29.4 9.2999 30 8.3999 30H6.7999L7.4999 27H9.1999C10.0999 27 10.5999 27.6 10.3999 28.5Z" fill="#21789E"/>
<path fill-rule="evenodd" clip-rule="evenodd" d="M10.4999 24H7.7999L1.8999 37H5.3999L6.2999 33H8.7999C11.1999 33 13.1999 31.6 13.6999 29.1C14.2999 26.2 12.1999 24 10.4999 24ZM10.3999 28.5C10.1999 29.4 9.2999 30 8.3999 30H6.7999L7.4999 27H9.1999C10.0999 27 10.5999 27.6 10.3999 28.5Z" fill="#1A5B80"/>
<path fill-rule="evenodd" clip-rule="evenodd" d="M17.7998 30.5C15.0998 30.7 13.2998 31.5 12.8998 33.5C12.1998 37.5 16.4998 37.6 18.1998 35.8L17.9998 37H21.1998L21.6998 34.6L17.7998 30.5ZM18.6998 33.7C18.4998 34.5 17.7998 34.8 16.9998 34.9C16.2998 34.9 15.6998 34.5 16.1998 33.7C16.5998 33.1 17.4998 33.1 18.0998 33.1C18.3998 33.1 18.5998 33.1 18.8998 33.1C18.7998 33 18.6998 33.4 18.6998 33.7Z" fill="#06435E"/>
<path fill-rule="evenodd" clip-rule="evenodd" d="M27.7999 32.5L27.5999 32.8L29.6999 34.8L34.0999 27H30.7999L27.7999 32.5Z" fill="#06435E"/>
<path fill-rule="evenodd" clip-rule="evenodd" d="M5.39995 37L6.29995 33L2.19995 37H5.39995Z" fill="#06435E"/>
<path fill-rule="evenodd" clip-rule="evenodd" d="M36.4 36.9998L37.2999 32.7998V32.8998L33.2 36.9998H36.4Z" fill="#2273AA"/>
<path fill-rule="evenodd" clip-rule="evenodd" d="M48.8999 30.5C46.1999 30.7 44.3999 31.5 43.9999 33.5C43.2999 37.5 47.6999 37.6 49.3999 35.8L49.0998 37H52.2999L52.7999 34.6L48.8999 30.5ZM49.7998 33.7C49.5999 34.5 48.8998 34.8 48.0998 34.9C47.3998 34.9 46.7999 34.5 47.1999 33.7C47.5999 33.1 48.4999 33.1 49.1999 33.1C49.3999 33.1 49.6999 33.1 49.9999 33.1C49.8999 33 49.7998 33.4 49.7998 33.7Z" fill="#2273AA"/>
<path fill-rule="evenodd" clip-rule="evenodd" d="M56.0998 31.1001L53.7998 37.0001H56.9998L57.8998 33.0001L56.0998 31.1001Z" fill="#2273AA"/>
<path d="M60.3999 26.1V24.7H59.8999V24.5H61.1999V24.7H60.6999V26.1H60.3999Z" fill="#32A6CE"/>
<path d="M61.3999 26.0999V24.4999H61.6999L62.0999 25.5999C62.0999 25.6999 62.1999 25.7999 62.1999 25.7999C62.1999 25.6999 62.1999 25.6999 62.2999 25.4999L62.6999 24.3999H62.9999V25.9999H62.7999V24.5999L62.2999 25.9999H61.9999L61.4999 24.5999V25.9999H61.3999V26.0999Z" fill="#32A6CE"/>
</svg>
