<svg width="106" height="18" viewBox="0 0 106 18" fill="none" xmlns="http://www.w3.org/2000/svg">
<path d="M14.678 16.8254C14.0782 17.2527 10.2297 14.5445 9.49262 14.5386C8.75554 14.5327 4.86371 17.1785 4.27092 16.7417C3.67813 16.3049 5.07175 11.8183 4.84966 11.1175C4.62757 10.4167 0.901375 7.54338 1.13479 6.84621C1.36825 6.14905 6.07805 6.08429 6.67784 5.65707C7.27763 5.22991 8.86659 0.808314 9.60372 0.814215C10.3407 0.820167 11.8579 5.26675 12.4507 5.70356C13.0435 6.14032 17.7517 6.28092 17.9738 6.98172C18.1959 7.68253 14.4238 10.4955 14.1903 11.1926C13.9569 11.8898 15.2778 16.3982 14.678 16.8254Z" fill="#F8B84E"/>
<path d="M36.678 16.8254C36.0782 17.2527 32.2297 14.5445 31.4926 14.5386C30.7555 14.5327 26.8637 17.1785 26.2709 16.7417C25.6781 16.3049 27.0717 11.8183 26.8497 11.1175C26.6276 10.4167 22.9014 7.54338 23.1348 6.84621C23.3682 6.14905 28.0781 6.08429 28.6778 5.65707C29.2776 5.22991 30.8666 0.808314 31.6037 0.814215C32.3407 0.820167 33.8579 5.26675 34.4507 5.70356C35.0435 6.14032 39.7517 6.28092 39.9738 6.98172C40.1959 7.68253 36.4238 10.4955 36.1903 11.1926C35.9569 11.8898 37.2778 16.3982 36.678 16.8254Z" fill="#F8B84E"/>
<path d="M58.678 16.8254C58.0782 17.2527 54.2297 14.5445 53.4926 14.5386C52.7555 14.5327 48.8637 17.1785 48.2709 16.7417C47.6781 16.3049 49.0717 11.8183 48.8497 11.1175C48.6276 10.4167 44.9014 7.54338 45.1348 6.84621C45.3682 6.14905 50.0781 6.08429 50.6778 5.65707C51.2776 5.22991 52.8666 0.808314 53.6037 0.814215C54.3407 0.820167 55.8579 5.26675 56.4507 5.70356C57.0435 6.14032 61.7517 6.28092 61.9738 6.98172C62.1959 7.68253 58.4238 10.4955 58.1903 11.1926C57.9569 11.8898 59.2778 16.3982 58.678 16.8254Z" fill="#F8B84E"/>
<path d="M80.678 16.8254C80.0782 17.2527 76.2297 14.5445 75.4926 14.5386C74.7555 14.5327 70.8637 17.1785 70.2709 16.7417C69.6781 16.3049 71.0717 11.8183 70.8497 11.1175C70.6276 10.4167 66.9014 7.54338 67.1348 6.84621C67.3682 6.14905 72.0781 6.08429 72.6778 5.65707C73.2776 5.22991 74.8666 0.808314 75.6037 0.814215C76.3407 0.820167 77.8579 5.26675 78.4507 5.70356C79.0435 6.14032 83.7517 6.28092 83.9738 6.98172C84.1959 7.68253 80.4238 10.4955 80.1903 11.1926C79.9569 11.8898 81.2778 16.3982 80.678 16.8254Z" fill="#F8B84E"/>
<path d="M102.678 16.8254C102.078 17.2527 98.2297 14.5445 97.4926 14.5386C96.7555 14.5327 92.8637 17.1785 92.2709 16.7417C91.6781 16.3049 93.0717 11.8183 92.8497 11.1175C92.6276 10.4167 88.9014 7.54338 89.1348 6.84621C89.3682 6.14905 94.0781 6.08429 94.6778 5.65707C95.2776 5.22991 96.8666 0.808314 97.6037 0.814215C98.3407 0.820167 99.8579 5.26675 100.451 5.70356C101.043 6.14032 105.752 6.28092 105.974 6.98172C106.196 7.68253 102.424 10.4955 102.19 11.1926C101.957 11.8898 103.278 16.3982 102.678 16.8254Z" fill="#F8B84E"/>
</svg>
