<svg width="25" height="24" viewBox="0 0 25 24" fill="none" xmlns="http://www.w3.org/2000/svg">
<path d="M21.21 19.29L17.81 15.9C18.907 14.5025 19.5022 12.7767 19.5 11C19.5 9.41775 19.0308 7.87103 18.1518 6.55544C17.2727 5.23985 16.0233 4.21447 14.5615 3.60897C13.0997 3.00347 11.4911 2.84504 9.93928 3.15372C8.38743 3.4624 6.96197 4.22433 5.84315 5.34315C4.72433 6.46197 3.9624 7.88743 3.65372 9.43928C3.34504 10.9911 3.50347 12.5997 4.10897 14.0615C4.71447 15.5233 5.73985 16.7727 7.05544 17.6518C8.37103 18.5308 9.91775 19 11.5 19C13.2767 19.0022 15.0025 18.407 16.4 17.31L19.79 20.71C19.883 20.8037 19.9936 20.8781 20.1154 20.9289C20.2373 20.9797 20.368 21.0058 20.5 21.0058C20.632 21.0058 20.7627 20.9797 20.8846 20.9289C21.0064 20.8781 21.117 20.8037 21.21 20.71C21.3037 20.617 21.3781 20.5064 21.4289 20.3846C21.4797 20.2627 21.5058 20.132 21.5058 20C21.5058 19.868 21.4797 19.7373 21.4289 19.6154C21.3781 19.4936 21.3037 19.383 21.21 19.29ZM5.5 11C5.5 9.81332 5.8519 8.65328 6.51119 7.66658C7.17047 6.67989 8.10755 5.91085 9.2039 5.45673C10.3003 5.0026 11.5067 4.88378 12.6705 5.11529C13.8344 5.3468 14.9035 5.91825 15.7426 6.75736C16.5818 7.59648 17.1532 8.66558 17.3847 9.82946C17.6162 10.9933 17.4974 12.1997 17.0433 13.2961C16.5892 14.3925 15.8201 15.3295 14.8334 15.9888C13.8467 16.6481 12.6867 17 11.5 17C9.9087 17 8.38258 16.3679 7.25736 15.2426C6.13214 14.1174 5.5 12.5913 5.5 11Z" fill="#0A0A0B"/>
</svg>
