<svg width="25" height="22" viewBox="0 0 25 22" fill="none" xmlns="http://www.w3.org/2000/svg">
<path d="M22.1353 5.47334L21.9117 5.63662L21.9314 5.91279C21.9458 6.1141 21.946 6.31839 21.946 6.54341C21.946 13.1017 16.9572 20.6214 7.86802 20.6214C5.77725 20.6214 3.79857 20.1703 2.0197 19.3571C4.22708 19.2004 6.25388 18.3847 7.90678 17.0892L9.00891 16.2254L7.6089 16.1958C5.85493 16.1587 4.34771 15.1643 3.58918 13.7187C3.65064 13.7207 3.71269 13.7217 3.77539 13.7217C4.28039 13.7217 4.78259 13.6521 5.24916 13.5312L5.22307 12.5572C3.3417 12.1758 1.87906 10.6666 1.57392 8.76065C2.1171 8.9607 2.70317 9.08225 3.31232 9.10521L5.08205 9.17192L3.60851 8.18954C2.36212 7.35861 1.54692 5.94152 1.54692 4.33843C1.54692 3.73934 1.65786 3.17627 1.86074 2.65732C4.45761 5.53921 8.16203 7.39843 12.2835 7.61377L12.9314 7.64762L12.7991 7.0125C12.7256 6.65987 12.6827 6.2978 12.6827 5.94063C12.6827 3.39213 14.7441 1.31689 17.3064 1.31689C18.6391 1.31689 19.8407 1.87509 20.6851 2.77669L20.8735 2.97788L21.1442 2.92596C21.8469 2.7912 22.5327 2.5842 23.1859 2.31446C22.8168 2.82791 22.3429 3.26369 21.7931 3.59188L22.1029 4.51832C22.5834 4.46661 23.0562 4.37908 23.5171 4.26179C23.0932 4.70512 22.6304 5.11181 22.1353 5.47334Z" fill="#0A0A0B" stroke="#0A0A0B"/>
</svg>
