<svg width="73" height="73" viewBox="0 0 73 73" fill="none" xmlns="http://www.w3.org/2000/svg">
<path fill-rule="evenodd" clip-rule="evenodd" d="M21.535 29.565L16.425 34.675L32.85 51.1L69.35 14.6L64.24 9.49L32.85 40.88L21.535 29.565ZM65.7 36.5C65.7 52.56 52.56 65.7 36.5 65.7C20.44 65.7 7.3 52.56 7.3 36.5C7.3 20.44 20.44 7.3 36.5 7.3C39.42 7.3 41.975 7.665 44.53 8.395L50.37 2.555C45.99 1.095 41.245 0 36.5 0C16.425 0 0 16.425 0 36.5C0 56.575 16.425 73 36.5 73C56.575 73 73 56.575 73 36.5H65.7Z" fill="#0B7B69"/>
</svg>
