<svg width="64" height="64" viewBox="0 0 64 64" fill="none" xmlns="http://www.w3.org/2000/svg">
<g clip-path="url(#clip0_161_796)">
<path d="M62.2933 19.3706H1.70667C0.764101 19.3706 0 20.1347 0 21.0773V42.8757C0 43.8182 0.764101 44.5823 1.70667 44.5823H62.2933C63.2359 44.5823 64 43.8182 64 42.8757V21.0773C64 20.1347 63.2359 19.3706 62.2933 19.3706Z" fill="#00425F"/>
<path d="M14.8054 40.7046C19.8717 40.7046 23.9787 36.5975 23.9787 31.5312C23.9787 26.465 19.8717 22.3579 14.8054 22.3579C9.73912 22.3579 5.63208 26.465 5.63208 31.5312C5.63208 36.5975 9.73912 40.7046 14.8054 40.7046Z" fill="#EE312A"/>
<path d="M14.8054 35.4446C12.7546 30.796 11.2508 26.4536 11.2508 26.4536H8.10669C8.10669 26.4536 10.0204 32.0273 13.5749 38.9976H16.0358C19.5904 32.0273 21.504 26.4536 21.504 26.4536H18.3599C18.3599 26.4536 16.8561 30.796 14.8054 35.4446Z" fill="white"/>
<path d="M58.6336 34.8631H52.5068C52.5068 34.8631 52.6429 36.9219 55.366 36.9219C56.7274 36.9219 58.089 36.5098 58.089 36.5098L58.3614 38.7054C58.3614 38.7054 56.9998 39.2543 55.0936 39.2543C52.3707 39.2543 49.9199 37.882 49.9199 34.0397C49.9199 31.0207 51.826 29.0996 54.549 29.0996C58.6336 29.0996 58.9059 33.2164 58.6336 34.8631ZM54.4129 31.0207C52.6429 31.0207 52.5068 32.9419 52.5068 32.9419H56.319C56.319 32.9419 56.1829 31.0207 54.4129 31.0207Z" fill="white"/>
<path d="M37.4799 31.6276L37.8882 29.4436C37.8882 29.4436 34.7344 28.4839 32.1709 30.2626V38.9984H34.8936L34.8934 31.9006C35.9823 31.0816 37.4799 31.6276 37.4799 31.6276Z" fill="white"/>
<path d="M30.0472 34.8631H23.9204C23.9204 34.8631 24.0566 36.9219 26.7796 36.9219C28.1411 36.9219 29.5025 36.5098 29.5025 36.5098L29.7749 38.7054C29.7749 38.7054 28.4134 39.2543 26.5073 39.2543C23.7842 39.2543 21.3335 37.882 21.3335 34.0397C21.3335 31.0207 23.2396 29.0996 25.9627 29.0996C30.0472 29.0996 30.3194 33.2164 30.0472 34.8631ZM25.8265 31.0207C24.0566 31.0207 23.9204 32.9419 23.9204 32.9419H27.7326C27.7326 32.9419 27.5965 31.0207 25.8265 31.0207Z" fill="white"/>
<path d="M44.1175 35.7218C43.2687 33.6568 42.5839 31.5281 42.0695 29.3555L39.3389 29.3558C39.3389 29.3558 40.7042 34.6288 43.0255 38.9981H45.2095C47.5309 34.6288 48.8962 29.3568 48.8962 29.3568H46.1656C45.6511 31.529 44.9663 33.6572 44.1175 35.7218Z" fill="white"/>
</g>
<defs>
<clipPath id="clip0_161_796">
<rect width="64" height="64" fill="white"/>
</clipPath>
</defs>
</svg>
