<svg width="64" height="64" viewBox="0 0 64 64" fill="none" xmlns="http://www.w3.org/2000/svg">
<path fill-rule="evenodd" clip-rule="evenodd" d="M26.416 23.0555L23.4828 41.0815H28.1756L31.1091 23.0555H26.416ZM19.5345 23.0555L15.0602 35.4537L14.531 32.7839L14.5313 32.7848L14.4147 32.1864C13.8732 31.0194 12.6191 28.8014 10.251 26.9085C9.55084 26.349 8.84509 25.8715 8.16284 25.4637L12.2292 41.0815H17.1187L24.5853 23.0555H19.5345ZM37.8496 28.0599C37.8496 26.0219 42.42 26.2838 44.4282 27.3904L45.0978 23.5189C45.0978 23.5189 43.0311 22.7329 40.8768 22.7329C38.5478 22.7329 33.0175 23.7514 33.0175 28.7003C33.0175 33.3578 39.5085 33.4157 39.5085 35.8609C39.5085 38.3062 33.6867 37.8692 31.7655 36.3267L31.0672 40.3733C31.0672 40.3733 33.1626 41.3918 36.365 41.3918C39.567 41.3918 44.399 39.7329 44.399 35.2205C44.399 30.5339 37.8496 30.0974 37.8496 28.0599ZM56.9996 23.0555H53.2265C51.4842 23.0555 51.06 24.3989 51.06 24.3989L44.0615 41.0815H48.9528L49.9313 38.4042H55.8973L56.4477 41.0815H60.7567L56.9996 23.0555ZM51.2837 34.705L53.7497 27.9593L55.137 34.705H51.2837Z" fill="#005BAC"/>
<path fill-rule="evenodd" clip-rule="evenodd" d="M13.0166 24.7529C13.0166 24.7529 12.8223 23.126 10.7486 23.126H3.21447L3.12622 23.4317C3.12622 23.4317 6.74772 24.17 10.2221 26.9359C13.5423 29.5794 14.6255 32.8746 14.6255 32.8746L13.0166 24.7529Z" fill="#F6AC1D"/>
</svg>
